<svg width="117" height="93" viewBox="0 0 117 93" fill="none" xmlns="http://www.w3.org/2000/svg">
<mask id="path-1-outside-1_431_2925" maskUnits="userSpaceOnUse" x="-13.3572" y="-7.94668" width="138.144" height="114.3" fill="black">
<rect fill="white" x="-13.3572" y="-7.94668" width="138.144" height="114.3"/>
<path d="M0.864275 24.013C7.43026 29.2301 15.1188 32.7193 22.8502 35.833C26.7488 37.4041 30.6826 38.8837 34.5744 40.4807C38.4662 42.0777 42.523 43.6836 46.5556 45.1582C54.6953 48.1332 62.9056 50.9252 71.0584 53.863C79.2111 56.8008 87.4884 59.3487 95.7393 61.9855C98.6061 62.9036 101.407 64.0223 104.274 64.9548C107.14 65.8873 110.18 66.7596 113.24 66.8378C113.894 66.8579 114.549 66.8258 115.198 66.7419C115.269 66.7377 115.336 66.7116 115.391 66.6674C115.445 66.6231 115.485 66.5628 115.503 66.495C115.792 65.2119 115.66 63.8988 114.539 63.0713C113.418 62.2438 111.942 62.0791 110.617 61.8939C106.282 61.1995 102.01 60.157 97.8418 58.7766C88.5779 55.9254 79.1487 53.6193 69.9964 50.4154C65.9471 48.9983 62.0105 47.2807 57.9353 45.9381C54.2613 44.7262 50.5567 43.638 46.9217 42.3145C39.9179 39.7614 32.9337 36.0516 29.501 29.0908C28.6073 27.131 27.8827 25.0984 27.3352 23.0151C26.6985 20.8567 26.1497 18.6725 25.6179 16.4976C24.5518 12.2203 23.569 7.8852 22.1841 3.67735C21.8372 2.62319 21.4614 1.56796 21.0561 0.526143C21.0349 0.45846 20.9922 0.399568 20.9344 0.358498C20.8766 0.317428 20.8069 0.296441 20.7361 0.298762C20.6652 0.301082 20.5971 0.32658 20.5421 0.371346C20.4871 0.416108 20.4483 0.47767 20.4317 0.546592C18.6496 5.60053 17.1451 11.3087 18.0232 16.6726C18.4479 18.8736 19.2835 20.975 20.4863 22.8666C21.7741 25.0683 23.2842 27.1322 24.9929 29.0259C26.3252 30.4935 27.9801 32.1819 29.9467 32.7332C31.7178 33.2366 33.3933 32.4021 34.6235 31.1393C36.0016 29.6232 37.0331 27.8252 37.6462 25.8702C38.3781 23.9276 38.6247 21.8357 38.3644 19.7762C37.8499 17.0159 36.6382 14.4329 34.8444 12.2726C33.137 10.0703 31.0274 8.21185 28.6274 6.79568C28.5645 6.76402 28.4932 6.75289 28.4236 6.76385C28.354 6.77481 28.2896 6.80731 28.2394 6.85677C26.7189 8.28578 26.7027 10.9219 26.7247 12.8401C26.8091 15.7656 27.1381 18.6789 27.7084 21.5495C28.14 24.0021 28.6113 26.4764 29.1816 28.8644C30.0282 32.5877 31.4847 36.1454 33.4919 39.3936C35.7297 43.1017 38.8865 46.1697 42.657 48.3007L42.8042 47.6941C38.9165 48.2641 35.3282 49.7589 31.7575 51.3297C29.9333 52.1846 28.0657 52.9435 26.1622 53.6032C24.2542 54.2144 22.306 54.6559 20.3552 55.0886C18.1561 55.5701 15.955 56.0284 13.7991 56.6739L14.1793 57.1405C15.1294 54.7825 16.6007 52.6701 18.483 50.9614C20.1414 49.5558 22.1096 48.5638 24.2259 48.0668C28.707 46.9791 33.4803 47.7211 37.9077 48.717C40.5369 49.3131 43.1008 50.0285 45.6648 50.7439L45.4589 50.2693C44.7767 51.9055 43.7623 53.3823 42.4798 54.6062C41.1973 55.83 39.6748 56.7744 38.0084 57.3794C34.7045 58.6381 31.1166 58.9436 27.6133 59.0811C25.6671 59.1543 23.7174 59.1664 21.7749 59.2194L22.0158 59.7649C24.1927 57.136 28.0198 56.1635 31.1589 55.2062C32.8729 54.6661 34.5873 54.1928 36.2553 53.5611C37.8949 52.8756 39.4977 52.1051 41.0571 51.2525C44.4625 49.5247 47.9478 47.9884 51.7595 47.4359C55.5711 46.8834 59.5998 47.3658 63.4486 48.0822C67.868 48.9039 72.2284 50.0627 76.6884 50.648C76.9713 50.6846 77.2661 50.3213 76.9995 50.0794C71.571 45.7947 64.8587 43.4381 59.6442 38.8567C55.0994 34.8339 52.5299 29.3205 50.4567 23.7239C49.3522 20.7186 48.3596 17.671 47.176 14.6889L46.7896 15.0981C55.8745 18.0065 60.9714 27.5031 63.5765 36.0577C64.2871 38.4502 64.829 40.8895 65.1982 43.3578L65.4334 43.0358C63.177 43.6373 60.7995 43.6136 58.5555 42.9674C56.484 42.3094 54.5928 41.1812 53.0295 39.6712C49.7412 36.5795 47.5705 32.3629 46.2079 28.1008C45.458 25.7787 44.9763 23.3785 44.7723 20.9468L44.4584 21.2775C47.6858 21.3068 50.2283 23.466 52.2399 25.7854C54.4653 28.3622 56.2309 31.2933 58.2772 34.0085C59.1685 35.2391 60.1775 36.3799 61.2899 37.4149C62.9209 38.7532 64.6494 39.9679 66.4611 41.049C70.5228 43.6994 74.7266 46.1172 79.0237 48.3644C83.876 50.8931 88.8439 53.197 93.8565 55.3923C93.9262 55.4441 94.0135 55.4661 94.0994 55.4535C94.1853 55.4409 94.2626 55.3947 94.3144 55.3251C94.3662 55.2555 94.3882 55.1681 94.3756 55.0822C94.363 54.9964 94.3168 54.919 94.2472 54.8672C90.6255 51.0612 86.1673 48.2308 82.2969 44.7173C80.3336 42.972 78.6419 40.9434 77.2776 38.6986C75.9715 36.3153 75.0064 33.7605 74.4106 31.1089C73.68 28.2712 73.011 25.4154 71.7163 22.7714L71.2848 23.2225C74.143 24.5475 76.8083 26.254 79.2078 28.2954C81.8892 30.4952 84.3351 32.9671 86.5063 35.6717C88.5703 38.1331 90.2239 40.9112 91.4034 43.8991C92.4522 46.7631 93.2726 49.7608 94.8777 52.4046C96.6923 55.4216 99.5252 57.4146 102.683 58.8539L102.672 58.2937C99.4768 59.8262 95.7714 60.2521 92.2808 60.5148C88.4876 60.804 84.671 60.7849 80.871 60.7084C77.2159 60.6372 73.5246 60.4429 69.8654 60.7168C65.983 60.945 62.2083 62.0814 58.845 64.0343C54.7787 66.4571 51.022 69.4482 46.2164 70.2106C45.8139 70.2711 45.8085 70.8888 46.2332 70.8552C54.3375 70.2349 62.0611 67.4338 69.6614 64.7499C71.8479 63.9808 74.0288 63.2085 76.2307 62.4921C76.2991 62.4704 76.3588 62.4275 76.4011 62.3696C76.4434 62.3117 76.4661 62.2418 76.466 62.1701C76.0517 56.5797 68.3846 55.8875 64.1318 55.8958C61.6784 55.8432 59.2295 56.1295 56.8545 56.7468C53.556 57.6982 50.4888 59.5371 47.646 61.4249C44.2819 63.6545 41.1231 66.1792 38.207 68.9692C38.1478 69.0308 38.1148 69.113 38.1149 69.1985C38.115 69.2839 38.1482 69.366 38.2075 69.4275C44.4336 75.0498 53.7769 75.6762 61.6767 74.3088C65.6747 73.6416 69.5368 72.3253 73.1101 70.4118C76.5161 68.4768 80.1591 66.9927 83.9477 65.9968C88.2973 65.0656 92.7783 64.9197 97.1792 65.5659L97.0221 65.0293C93.9713 68.7021 90.2787 71.7652 86.9586 75.1872C85.2701 76.9233 83.7728 78.8231 82.1546 80.6198C80.5364 82.4165 78.7598 84.2595 76.9927 86.0043C74.9821 87.978 72.9241 89.9035 70.8577 91.817L71.3828 92.2077C73.0153 88.4536 74.3334 84.5718 76.1029 80.8778C77.776 77.3602 79.9152 73.3956 83.3939 71.3311C84.9592 70.3884 86.8021 70.0158 88.6106 70.2764C89.6869 70.4684 90.735 70.7936 91.7309 71.2445C92.5623 71.5884 93.4906 71.7416 94.2909 72.1425C95.0912 72.5433 95.1172 73.3333 95.1063 74.177C95.0522 75.5976 94.6473 76.9828 93.9277 78.209C92.7732 80.3116 91.2029 82.1574 89.3125 83.634C87.2325 85.1753 85.0333 86.5491 82.7357 87.7422C81.6171 88.3519 80.4587 88.8857 79.2684 89.3401C78.4918 89.7 77.6399 89.8675 76.7848 89.8285C76.3782 89.7613 76.2275 90.388 76.6272 90.4811C77.3743 90.5589 78.1294 90.4668 78.8359 90.2117C79.9053 89.8563 80.9463 89.4206 81.9501 88.9082C84.2153 87.7742 86.3934 86.474 88.4666 85.0183C90.3065 83.7468 91.9174 82.1722 93.2303 80.3616C94.1489 79.1714 94.8619 77.8359 95.34 76.4105C95.7241 75.2526 95.79 74.0127 95.5306 72.8206C95.4219 72.4789 95.2274 72.1708 94.9658 71.9255C94.7043 71.6803 94.3842 71.5061 94.0363 71.4195C93.0171 71.0541 92.0062 70.7006 90.9995 70.3124C89.1611 69.5162 87.1148 69.3348 85.165 69.7953C81.1845 70.913 78.5691 74.7353 76.699 78.1674C74.5371 82.1195 73.0483 86.3808 71.3455 90.5471C71.167 90.9815 70.9886 91.4158 70.7956 91.8496C70.7592 91.9197 70.7491 92.0006 70.7672 92.0776C70.7853 92.1546 70.8304 92.2225 70.8942 92.269C70.9581 92.3156 71.0366 92.3377 71.1154 92.3314C71.1942 92.3251 71.2682 92.2907 71.3238 92.2346C74.9992 88.8517 78.6415 85.4213 82.0121 81.7313C83.6561 79.9414 85.154 78.0271 86.8327 76.2413C88.5114 74.4556 90.221 72.8566 91.9528 71.2033C93.9042 69.3933 95.7495 67.4721 97.4794 65.4494C97.6162 65.2804 97.585 64.9457 97.3166 64.9096C93.4834 64.3625 89.5909 64.376 85.7616 64.95C82.1375 65.6252 78.6306 66.8226 75.3502 68.5046C73.5278 69.3917 71.7806 70.4381 69.9153 71.2279C68.0774 71.9999 66.1803 72.6224 64.2424 73.0895C60.0726 74.136 55.7559 74.47 51.4747 74.0771C46.8274 73.6183 42.1605 72.1145 38.655 68.9335L38.6612 69.395C41.1037 67.0611 43.7196 64.9158 46.4864 62.9775C49.288 60.8982 52.336 59.1732 55.5609 57.8419C57.7511 57.0563 60.0524 56.6243 62.3784 56.5621C65.1181 56.3588 67.8727 56.5937 70.5385 57.2579C72.985 57.9313 75.5926 59.3503 75.8049 62.1631L76.0344 61.838C68.3956 64.3087 60.8966 67.4691 52.9871 69.1785C50.7491 69.6693 48.4805 70.0081 46.1968 70.1925L46.2136 70.837C50.3595 70.1866 53.765 67.986 57.2258 65.7788C59.0149 64.5627 60.9328 63.5478 62.9446 62.7528C64.8043 62.0936 66.7371 61.6624 68.7006 61.4686C72.4458 61.0644 76.2131 61.2413 79.995 61.3374C83.7768 61.4335 87.5815 61.4609 91.3612 61.2234C95.263 60.9788 99.4092 60.5575 102.996 58.8626C103.044 58.8324 103.084 58.7904 103.111 58.7404C103.139 58.6904 103.153 58.6342 103.152 58.5773C103.151 58.5204 103.135 58.4646 103.107 58.4155C103.078 58.3663 103.037 58.3254 102.988 58.2966C100.073 56.9678 97.3946 55.1778 95.6453 52.4329C93.9889 49.8423 93.1375 46.8203 92.1152 43.9485C91.0136 41.0441 89.4603 38.3318 87.5127 35.9119C85.3912 33.1707 82.9893 30.6584 80.3463 28.4158C77.7236 26.0963 74.7812 24.1658 71.6093 22.6834C71.5469 22.65 71.4753 22.6381 71.4055 22.6492C71.3356 22.6604 71.2714 22.6941 71.2225 22.7452C71.1736 22.7963 71.1428 22.8621 71.1347 22.9323C71.1266 23.0026 71.1418 23.0736 71.1778 23.1344C73.5428 27.9818 73.7688 33.5653 76.3278 38.3415C78.8248 42.9879 82.9499 46.2787 87.0265 49.4692C89.4316 51.2511 91.7026 53.2071 93.8214 55.3214L94.2064 54.7932C85.1859 50.8487 76.3313 46.4926 68.0102 41.202C65.99 40.0062 64.0414 38.6935 62.1742 37.2707C61.0068 36.2748 59.961 35.1448 59.0584 33.9039C56.9718 31.1814 55.1922 28.2353 52.9804 25.6068C50.7685 22.9783 48.0109 20.6719 44.4742 20.6139C44.4317 20.6143 44.3897 20.6233 44.3507 20.6403C44.3118 20.6573 44.2766 20.682 44.2473 20.7128C44.218 20.7436 44.1953 20.7801 44.1803 20.8199C44.1654 20.8597 44.1586 20.9021 44.1603 20.9446C44.5406 25.5608 45.8817 30.0466 48.0976 34.1141C50.2546 38.072 53.4331 41.7833 57.7723 43.3591C60.3097 44.2365 63.0512 44.3367 65.6458 43.647C65.7142 43.6253 65.7739 43.5824 65.8162 43.5245C65.8585 43.4666 65.8812 43.3967 65.8811 43.325C65.1682 38.7075 63.8511 34.2039 61.9637 29.9299C60.0193 25.5564 57.3583 21.3449 53.6794 18.2242C51.69 16.5224 49.385 15.2289 46.896 14.4175C46.8404 14.404 46.7823 14.4055 46.7275 14.4217C46.6728 14.438 46.6232 14.4684 46.584 14.5099C46.5448 14.5515 46.5172 14.6027 46.5042 14.6583C46.4911 14.7139 46.4929 14.772 46.5096 14.8267C48.656 20.2491 50.201 25.9335 52.9188 31.1217C54.2352 33.6997 55.928 36.0674 57.9416 38.147C60.4677 40.537 63.2987 42.5825 66.361 44.2303C69.8039 46.2023 73.3628 48.0161 76.4791 50.504L76.7902 49.9353C72.7171 49.3991 68.7656 48.3975 64.7171 47.5866C60.9045 46.8309 56.9712 46.2012 53.0802 46.5478C49.2694 46.9693 45.5699 48.0946 42.1699 49.8665C40.4566 50.7024 38.7908 51.6678 37.0652 52.4452C35.3857 53.1431 33.6646 53.7364 31.9117 54.2216C29.8816 54.7937 27.8855 55.4802 25.9329 56.2779C24.2376 56.9077 22.7137 57.9264 21.4836 59.2521C21.4402 59.2985 21.4113 59.3567 21.4007 59.4193C21.39 59.482 21.3981 59.5464 21.4237 59.6045C21.4494 59.6627 21.4916 59.712 21.5451 59.7463C21.5986 59.7807 21.661 59.7985 21.7245 59.7977C25.3861 59.695 29.0563 59.7522 32.6863 59.2481C36.1383 58.7723 39.6323 57.7874 42.3529 55.5151C43.9398 54.1652 45.1765 52.4513 45.9573 50.5198C45.9796 50.4759 45.9918 50.4276 45.993 50.3785C45.9943 50.3293 45.9845 50.2805 45.9645 50.2355C45.9445 50.1906 45.9147 50.1507 45.8773 50.1188C45.8399 50.0868 45.7959 50.0636 45.7484 50.0508C41.0446 48.7633 36.3145 47.4022 31.4394 46.9814C27.0009 46.6 22.2732 47.139 18.6461 49.9202C16.3881 51.7364 14.6355 54.1031 13.5569 56.7926C13.5289 56.8488 13.5175 56.9118 13.524 56.9742C13.5306 57.0366 13.5547 57.0959 13.5936 57.1451C13.6326 57.1943 13.6847 57.2314 13.744 57.252C13.8032 57.2727 13.8672 57.276 13.9282 57.2617C17.6713 56.1323 21.5584 55.5768 25.3086 54.4883C29.0588 53.3998 32.5223 51.5117 36.1746 50.0889C38.305 49.2451 40.522 48.6392 42.7853 48.2822C42.854 48.2753 42.9188 48.2471 42.9707 48.2015C43.0225 48.1559 43.0588 48.0952 43.0744 48.028C43.09 47.9607 43.0841 47.8903 43.0577 47.8265C43.0312 47.7628 42.9854 47.7089 42.9268 47.6725C36.2963 44.0454 32.07 37.1307 30.1202 29.9984C29.4687 27.6103 29.0263 25.137 28.5621 22.7036C27.9846 19.9114 27.5938 17.0839 27.3924 14.2397C27.2729 12.8337 27.3037 11.4191 27.4844 10.0197C27.5631 8.99288 27.9714 8.01899 28.6486 7.24317L28.2637 7.29857C32.2855 9.61681 35.8945 13.608 37.2641 18.0735C38.475 21.9645 37.3036 26.4289 34.9129 29.6649C33.933 30.9833 32.4861 32.3048 30.7306 32.1646C28.839 32.0164 27.1774 30.3539 25.9369 29.0694C24.2528 27.2988 22.7602 25.3555 21.4837 23.2718C20.3336 21.5651 19.4492 19.6937 18.8605 17.7216C18.2448 14.8531 18.222 11.889 18.7935 9.01126C19.2822 6.1539 20.0247 3.34579 21.012 0.620235L20.3876 0.640689C23.5972 8.92759 24.7773 17.8183 27.6267 26.1963C28.7608 29.7123 30.7518 32.891 33.4202 35.446C36.114 37.8698 39.1978 39.8215 42.5415 41.2187C49.5626 44.3207 57.0997 46.0203 64.205 48.8875C73.1737 52.5081 82.549 54.8587 91.8152 57.5708C96.3524 58.8928 100.82 60.4501 105.424 61.528C107.287 61.971 109.159 62.2635 111.045 62.5565C112.245 62.7401 113.885 62.9573 114.644 64.0817C114.824 64.4193 114.934 64.7898 114.966 65.1709C114.999 65.552 114.954 65.9358 114.835 66.2991L115.143 66.0465C112.22 66.4201 109.223 65.7119 106.422 64.9036C103.467 64.0258 100.574 62.9385 97.659 61.9201C94.0043 60.6596 90.2971 59.5626 86.6133 58.3823C82.4966 57.0613 78.3925 55.7176 74.3117 54.2906C70.2309 52.8636 66.2117 51.3373 62.1273 49.9305C58.0428 48.5237 54.0535 47.1319 50.0255 45.6895C41.986 42.8284 34.0841 39.5402 26.1328 36.4097C18.4303 33.3783 10.6762 30.1709 3.84947 25.4169C2.97287 24.8044 2.12062 24.1609 1.28081 23.4946C0.956778 23.2361 0.501503 23.7037 0.821891 23.9824L0.864275 24.013Z"/>
</mask>
<path d="M0.864275 24.013C7.43026 29.2301 15.1188 32.7193 22.8502 35.833C26.7488 37.4041 30.6826 38.8837 34.5744 40.4807C38.4662 42.0777 42.523 43.6836 46.5556 45.1582C54.6953 48.1332 62.9056 50.9252 71.0584 53.863C79.2111 56.8008 87.4884 59.3487 95.7393 61.9855C98.6061 62.9036 101.407 64.0223 104.274 64.9548C107.14 65.8873 110.18 66.7596 113.24 66.8378C113.894 66.8579 114.549 66.8258 115.198 66.7419C115.269 66.7377 115.336 66.7116 115.391 66.6674C115.445 66.6231 115.485 66.5628 115.503 66.495C115.792 65.2119 115.66 63.8988 114.539 63.0713C113.418 62.2438 111.942 62.0791 110.617 61.8939C106.282 61.1995 102.01 60.157 97.8418 58.7766C88.5779 55.9254 79.1487 53.6193 69.9964 50.4154C65.9471 48.9983 62.0105 47.2807 57.9353 45.9381C54.2613 44.7262 50.5567 43.638 46.9217 42.3145C39.9179 39.7614 32.9337 36.0516 29.501 29.0908C28.6073 27.131 27.8827 25.0984 27.3352 23.0151C26.6985 20.8567 26.1497 18.6725 25.6179 16.4976C24.5518 12.2203 23.569 7.8852 22.1841 3.67735C21.8372 2.62319 21.4614 1.56796 21.0561 0.526143C21.0349 0.45846 20.9922 0.399568 20.9344 0.358498C20.8766 0.317428 20.8069 0.296441 20.7361 0.298762C20.6652 0.301082 20.5971 0.32658 20.5421 0.371346C20.4871 0.416108 20.4483 0.47767 20.4317 0.546592C18.6496 5.60053 17.1451 11.3087 18.0232 16.6726C18.4479 18.8736 19.2835 20.975 20.4863 22.8666C21.7741 25.0683 23.2842 27.1322 24.9929 29.0259C26.3252 30.4935 27.9801 32.1819 29.9467 32.7332C31.7178 33.2366 33.3933 32.4021 34.6235 31.1393C36.0016 29.6232 37.0331 27.8252 37.6462 25.8702C38.3781 23.9276 38.6247 21.8357 38.3644 19.7762C37.8499 17.0159 36.6382 14.4329 34.8444 12.2726C33.137 10.0703 31.0274 8.21185 28.6274 6.79568C28.5645 6.76402 28.4932 6.75289 28.4236 6.76385C28.354 6.77481 28.2896 6.80731 28.2394 6.85677C26.7189 8.28578 26.7027 10.9219 26.7247 12.8401C26.8091 15.7656 27.1381 18.6789 27.7084 21.5495C28.14 24.0021 28.6113 26.4764 29.1816 28.8644C30.0282 32.5877 31.4847 36.1454 33.4919 39.3936C35.7297 43.1017 38.8865 46.1697 42.657 48.3007L42.8042 47.6941C38.9165 48.2641 35.3282 49.7589 31.7575 51.3297C29.9333 52.1846 28.0657 52.9435 26.1622 53.6032C24.2542 54.2144 22.306 54.6559 20.3552 55.0886C18.1561 55.5701 15.955 56.0284 13.7991 56.6739L14.1793 57.1405C15.1294 54.7825 16.6007 52.6701 18.483 50.9614C20.1414 49.5558 22.1096 48.5638 24.2259 48.0668C28.707 46.9791 33.4803 47.7211 37.9077 48.717C40.5369 49.3131 43.1008 50.0285 45.6648 50.7439L45.4589 50.2693C44.7767 51.9055 43.7623 53.3823 42.4798 54.6062C41.1973 55.83 39.6748 56.7744 38.0084 57.3794C34.7045 58.6381 31.1166 58.9436 27.6133 59.0811C25.6671 59.1543 23.7174 59.1664 21.7749 59.2194L22.0158 59.7649C24.1927 57.136 28.0198 56.1635 31.1589 55.2062C32.8729 54.6661 34.5873 54.1928 36.2553 53.5611C37.8949 52.8756 39.4977 52.1051 41.0571 51.2525C44.4625 49.5247 47.9478 47.9884 51.7595 47.4359C55.5711 46.8834 59.5998 47.3658 63.4486 48.0822C67.868 48.9039 72.2284 50.0627 76.6884 50.648C76.9713 50.6846 77.2661 50.3213 76.9995 50.0794C71.571 45.7947 64.8587 43.4381 59.6442 38.8567C55.0994 34.8339 52.5299 29.3205 50.4567 23.7239C49.3522 20.7186 48.3596 17.671 47.176 14.6889L46.7896 15.0981C55.8745 18.0065 60.9714 27.5031 63.5765 36.0577C64.2871 38.4502 64.829 40.8895 65.1982 43.3578L65.4334 43.0358C63.177 43.6373 60.7995 43.6136 58.5555 42.9674C56.484 42.3094 54.5928 41.1812 53.0295 39.6712C49.7412 36.5795 47.5705 32.3629 46.2079 28.1008C45.458 25.7787 44.9763 23.3785 44.7723 20.9468L44.4584 21.2775C47.6858 21.3068 50.2283 23.466 52.2399 25.7854C54.4653 28.3622 56.2309 31.2933 58.2772 34.0085C59.1685 35.2391 60.1775 36.3799 61.2899 37.4149C62.9209 38.7532 64.6494 39.9679 66.4611 41.049C70.5228 43.6994 74.7266 46.1172 79.0237 48.3644C83.876 50.8931 88.8439 53.197 93.8565 55.3923C93.9262 55.4441 94.0135 55.4661 94.0994 55.4535C94.1853 55.4409 94.2626 55.3947 94.3144 55.3251C94.3662 55.2555 94.3882 55.1681 94.3756 55.0822C94.363 54.9964 94.3168 54.919 94.2472 54.8672C90.6255 51.0612 86.1673 48.2308 82.2969 44.7173C80.3336 42.972 78.6419 40.9434 77.2776 38.6986C75.9715 36.3153 75.0064 33.7605 74.4106 31.1089C73.68 28.2712 73.011 25.4154 71.7163 22.7714L71.2848 23.2225C74.143 24.5475 76.8083 26.254 79.2078 28.2954C81.8892 30.4952 84.3351 32.9671 86.5063 35.6717C88.5703 38.1331 90.2239 40.9112 91.4034 43.8991C92.4522 46.7631 93.2726 49.7608 94.8777 52.4046C96.6923 55.4216 99.5252 57.4146 102.683 58.8539L102.672 58.2937C99.4768 59.8262 95.7714 60.2521 92.2808 60.5148C88.4876 60.804 84.671 60.7849 80.871 60.7084C77.2159 60.6372 73.5246 60.4429 69.8654 60.7168C65.983 60.945 62.2083 62.0814 58.845 64.0343C54.7787 66.4571 51.022 69.4482 46.2164 70.2106C45.8139 70.2711 45.8085 70.8888 46.2332 70.8552C54.3375 70.2349 62.0611 67.4338 69.6614 64.7499C71.8479 63.9808 74.0288 63.2085 76.2307 62.4921C76.2991 62.4704 76.3588 62.4275 76.4011 62.3696C76.4434 62.3117 76.4661 62.2418 76.466 62.1701C76.0517 56.5797 68.3846 55.8875 64.1318 55.8958C61.6784 55.8432 59.2295 56.1295 56.8545 56.7468C53.556 57.6982 50.4888 59.5371 47.646 61.4249C44.2819 63.6545 41.1231 66.1792 38.207 68.9692C38.1478 69.0308 38.1148 69.113 38.1149 69.1985C38.115 69.2839 38.1482 69.366 38.2075 69.4275C44.4336 75.0498 53.7769 75.6762 61.6767 74.3088C65.6747 73.6416 69.5368 72.3253 73.1101 70.4118C76.5161 68.4768 80.1591 66.9927 83.9477 65.9968C88.2973 65.0656 92.7783 64.9197 97.1792 65.5659L97.0221 65.0293C93.9713 68.7021 90.2787 71.7652 86.9586 75.1872C85.2701 76.9233 83.7728 78.8231 82.1546 80.6198C80.5364 82.4165 78.7598 84.2595 76.9927 86.0043C74.9821 87.978 72.9241 89.9035 70.8577 91.817L71.3828 92.2077C73.0153 88.4536 74.3334 84.5718 76.1029 80.8778C77.776 77.3602 79.9152 73.3956 83.3939 71.3311C84.9592 70.3884 86.8021 70.0158 88.6106 70.2764C89.6869 70.4684 90.735 70.7936 91.7309 71.2445C92.5623 71.5884 93.4906 71.7416 94.2909 72.1425C95.0912 72.5433 95.1172 73.3333 95.1063 74.177C95.0522 75.5976 94.6473 76.9828 93.9277 78.209C92.7732 80.3116 91.2029 82.1574 89.3125 83.634C87.2325 85.1753 85.0333 86.5491 82.7357 87.7422C81.6171 88.3519 80.4587 88.8857 79.2684 89.3401C78.4918 89.7 77.6399 89.8675 76.7848 89.8285C76.3782 89.7613 76.2275 90.388 76.6272 90.4811C77.3743 90.5589 78.1294 90.4668 78.8359 90.2117C79.9053 89.8563 80.9463 89.4206 81.9501 88.9082C84.2153 87.7742 86.3934 86.474 88.4666 85.0183C90.3065 83.7468 91.9174 82.1722 93.2303 80.3616C94.1489 79.1714 94.8619 77.8359 95.34 76.4105C95.7241 75.2526 95.79 74.0127 95.5306 72.8206C95.4219 72.4789 95.2274 72.1708 94.9658 71.9255C94.7043 71.6803 94.3842 71.5061 94.0363 71.4195C93.0171 71.0541 92.0062 70.7006 90.9995 70.3124C89.1611 69.5162 87.1148 69.3348 85.165 69.7953C81.1845 70.913 78.5691 74.7353 76.699 78.1674C74.5371 82.1195 73.0483 86.3808 71.3455 90.5471C71.167 90.9815 70.9886 91.4158 70.7956 91.8496C70.7592 91.9197 70.7491 92.0006 70.7672 92.0776C70.7853 92.1546 70.8304 92.2225 70.8942 92.269C70.9581 92.3156 71.0366 92.3377 71.1154 92.3314C71.1942 92.3251 71.2682 92.2907 71.3238 92.2346C74.9992 88.8517 78.6415 85.4213 82.0121 81.7313C83.6561 79.9414 85.154 78.0271 86.8327 76.2413C88.5114 74.4556 90.221 72.8566 91.9528 71.2033C93.9042 69.3933 95.7495 67.4721 97.4794 65.4494C97.6162 65.2804 97.585 64.9457 97.3166 64.9096C93.4834 64.3625 89.5909 64.376 85.7616 64.95C82.1375 65.6252 78.6306 66.8226 75.3502 68.5046C73.5278 69.3917 71.7806 70.4381 69.9153 71.2279C68.0774 71.9999 66.1803 72.6224 64.2424 73.0895C60.0726 74.136 55.7559 74.47 51.4747 74.0771C46.8274 73.6183 42.1605 72.1145 38.655 68.9335L38.6612 69.395C41.1037 67.0611 43.7196 64.9158 46.4864 62.9775C49.288 60.8982 52.336 59.1732 55.5609 57.8419C57.7511 57.0563 60.0524 56.6243 62.3784 56.5621C65.1181 56.3588 67.8727 56.5937 70.5385 57.2579C72.985 57.9313 75.5926 59.3503 75.8049 62.1631L76.0344 61.838C68.3956 64.3087 60.8966 67.4691 52.9871 69.1785C50.7491 69.6693 48.4805 70.0081 46.1968 70.1925L46.2136 70.837C50.3595 70.1866 53.765 67.986 57.2258 65.7788C59.0149 64.5627 60.9328 63.5478 62.9446 62.7528C64.8043 62.0936 66.7371 61.6624 68.7006 61.4686C72.4458 61.0644 76.2131 61.2413 79.995 61.3374C83.7768 61.4335 87.5815 61.4609 91.3612 61.2234C95.263 60.9788 99.4092 60.5575 102.996 58.8626C103.044 58.8324 103.084 58.7904 103.111 58.7404C103.139 58.6904 103.153 58.6342 103.152 58.5773C103.151 58.5204 103.135 58.4646 103.107 58.4155C103.078 58.3663 103.037 58.3254 102.988 58.2966C100.073 56.9678 97.3946 55.1778 95.6453 52.4329C93.9889 49.8423 93.1375 46.8203 92.1152 43.9485C91.0136 41.0441 89.4603 38.3318 87.5127 35.9119C85.3912 33.1707 82.9893 30.6584 80.3463 28.4158C77.7236 26.0963 74.7812 24.1658 71.6093 22.6834C71.5469 22.65 71.4753 22.6381 71.4055 22.6492C71.3356 22.6604 71.2714 22.6941 71.2225 22.7452C71.1736 22.7963 71.1428 22.8621 71.1347 22.9323C71.1266 23.0026 71.1418 23.0736 71.1778 23.1344C73.5428 27.9818 73.7688 33.5653 76.3278 38.3415C78.8248 42.9879 82.9499 46.2787 87.0265 49.4692C89.4316 51.2511 91.7026 53.2071 93.8214 55.3214L94.2064 54.7932C85.1859 50.8487 76.3313 46.4926 68.0102 41.202C65.99 40.0062 64.0414 38.6935 62.1742 37.2707C61.0068 36.2748 59.961 35.1448 59.0584 33.9039C56.9718 31.1814 55.1922 28.2353 52.9804 25.6068C50.7685 22.9783 48.0109 20.6719 44.4742 20.6139C44.4317 20.6143 44.3897 20.6233 44.3507 20.6403C44.3118 20.6573 44.2766 20.682 44.2473 20.7128C44.218 20.7436 44.1953 20.7801 44.1803 20.8199C44.1654 20.8597 44.1586 20.9021 44.1603 20.9446C44.5406 25.5608 45.8817 30.0466 48.0976 34.1141C50.2546 38.072 53.4331 41.7833 57.7723 43.3591C60.3097 44.2365 63.0512 44.3367 65.6458 43.647C65.7142 43.6253 65.7739 43.5824 65.8162 43.5245C65.8585 43.4666 65.8812 43.3967 65.8811 43.325C65.1682 38.7075 63.8511 34.2039 61.9637 29.9299C60.0193 25.5564 57.3583 21.3449 53.6794 18.2242C51.69 16.5224 49.385 15.2289 46.896 14.4175C46.8404 14.404 46.7823 14.4055 46.7275 14.4217C46.6728 14.438 46.6232 14.4684 46.584 14.5099C46.5448 14.5515 46.5172 14.6027 46.5042 14.6583C46.4911 14.7139 46.4929 14.772 46.5096 14.8267C48.656 20.2491 50.201 25.9335 52.9188 31.1217C54.2352 33.6997 55.928 36.0674 57.9416 38.147C60.4677 40.537 63.2987 42.5825 66.361 44.2303C69.8039 46.2023 73.3628 48.0161 76.4791 50.504L76.7902 49.9353C72.7171 49.3991 68.7656 48.3975 64.7171 47.5866C60.9045 46.8309 56.9712 46.2012 53.0802 46.5478C49.2694 46.9693 45.5699 48.0946 42.1699 49.8665C40.4566 50.7024 38.7908 51.6678 37.0652 52.4452C35.3857 53.1431 33.6646 53.7364 31.9117 54.2216C29.8816 54.7937 27.8855 55.4802 25.9329 56.2779C24.2376 56.9077 22.7137 57.9264 21.4836 59.2521C21.4402 59.2985 21.4113 59.3567 21.4007 59.4193C21.39 59.482 21.3981 59.5464 21.4237 59.6045C21.4494 59.6627 21.4916 59.712 21.5451 59.7463C21.5986 59.7807 21.661 59.7985 21.7245 59.7977C25.3861 59.695 29.0563 59.7522 32.6863 59.2481C36.1383 58.7723 39.6323 57.7874 42.3529 55.5151C43.9398 54.1652 45.1765 52.4513 45.9573 50.5198C45.9796 50.4759 45.9918 50.4276 45.993 50.3785C45.9943 50.3293 45.9845 50.2805 45.9645 50.2355C45.9445 50.1906 45.9147 50.1507 45.8773 50.1188C45.8399 50.0868 45.7959 50.0636 45.7484 50.0508C41.0446 48.7633 36.3145 47.4022 31.4394 46.9814C27.0009 46.6 22.2732 47.139 18.6461 49.9202C16.3881 51.7364 14.6355 54.1031 13.5569 56.7926C13.5289 56.8488 13.5175 56.9118 13.524 56.9742C13.5306 57.0366 13.5547 57.0959 13.5936 57.1451C13.6326 57.1943 13.6847 57.2314 13.744 57.252C13.8032 57.2727 13.8672 57.276 13.9282 57.2617C17.6713 56.1323 21.5584 55.5768 25.3086 54.4883C29.0588 53.3998 32.5223 51.5117 36.1746 50.0889C38.305 49.2451 40.522 48.6392 42.7853 48.2822C42.854 48.2753 42.9188 48.2471 42.9707 48.2015C43.0225 48.1559 43.0588 48.0952 43.0744 48.028C43.09 47.9607 43.0841 47.8903 43.0577 47.8265C43.0312 47.7628 42.9854 47.7089 42.9268 47.6725C36.2963 44.0454 32.07 37.1307 30.1202 29.9984C29.4687 27.6103 29.0263 25.137 28.5621 22.7036C27.9846 19.9114 27.5938 17.0839 27.3924 14.2397C27.2729 12.8337 27.3037 11.4191 27.4844 10.0197C27.5631 8.99288 27.9714 8.01899 28.6486 7.24317L28.2637 7.29857C32.2855 9.61681 35.8945 13.608 37.2641 18.0735C38.475 21.9645 37.3036 26.4289 34.9129 29.6649C33.933 30.9833 32.4861 32.3048 30.7306 32.1646C28.839 32.0164 27.1774 30.3539 25.9369 29.0694C24.2528 27.2988 22.7602 25.3555 21.4837 23.2718C20.3336 21.5651 19.4492 19.6937 18.8605 17.7216C18.2448 14.8531 18.222 11.889 18.7935 9.01126C19.2822 6.1539 20.0247 3.34579 21.012 0.620235L20.3876 0.640689C23.5972 8.92759 24.7773 17.8183 27.6267 26.1963C28.7608 29.7123 30.7518 32.891 33.4202 35.446C36.114 37.8698 39.1978 39.8215 42.5415 41.2187C49.5626 44.3207 57.0997 46.0203 64.205 48.8875C73.1737 52.5081 82.549 54.8587 91.8152 57.5708C96.3524 58.8928 100.82 60.4501 105.424 61.528C107.287 61.971 109.159 62.2635 111.045 62.5565C112.245 62.7401 113.885 62.9573 114.644 64.0817C114.824 64.4193 114.934 64.7898 114.966 65.1709C114.999 65.552 114.954 65.9358 114.835 66.2991L115.143 66.0465C112.22 66.4201 109.223 65.7119 106.422 64.9036C103.467 64.0258 100.574 62.9385 97.659 61.9201C94.0043 60.6596 90.2971 59.5626 86.6133 58.3823C82.4966 57.0613 78.3925 55.7176 74.3117 54.2906C70.2309 52.8636 66.2117 51.3373 62.1273 49.9305C58.0428 48.5237 54.0535 47.1319 50.0255 45.6895C41.986 42.8284 34.0841 39.5402 26.1328 36.4097C18.4303 33.3783 10.6762 30.1709 3.84947 25.4169C2.97287 24.8044 2.12062 24.1609 1.28081 23.4946C0.956778 23.2361 0.501503 23.7037 0.821891 23.9824L0.864275 24.013Z" fill="#E9CDB4"/>
<path d="M0.864275 24.013C7.43026 29.2301 15.1188 32.7193 22.8502 35.833C26.7488 37.4041 30.6826 38.8837 34.5744 40.4807C38.4662 42.0777 42.523 43.6836 46.5556 45.1582C54.6953 48.1332 62.9056 50.9252 71.0584 53.863C79.2111 56.8008 87.4884 59.3487 95.7393 61.9855C98.6061 62.9036 101.407 64.0223 104.274 64.9548C107.14 65.8873 110.18 66.7596 113.24 66.8378C113.894 66.8579 114.549 66.8258 115.198 66.7419C115.269 66.7377 115.336 66.7116 115.391 66.6674C115.445 66.6231 115.485 66.5628 115.503 66.495C115.792 65.2119 115.66 63.8988 114.539 63.0713C113.418 62.2438 111.942 62.0791 110.617 61.8939C106.282 61.1995 102.01 60.157 97.8418 58.7766C88.5779 55.9254 79.1487 53.6193 69.9964 50.4154C65.9471 48.9983 62.0105 47.2807 57.9353 45.9381C54.2613 44.7262 50.5567 43.638 46.9217 42.3145C39.9179 39.7614 32.9337 36.0516 29.501 29.0908C28.6073 27.131 27.8827 25.0984 27.3352 23.0151C26.6985 20.8567 26.1497 18.6725 25.6179 16.4976C24.5518 12.2203 23.569 7.8852 22.1841 3.67735C21.8372 2.62319 21.4614 1.56796 21.0561 0.526143C21.0349 0.45846 20.9922 0.399568 20.9344 0.358498C20.8766 0.317428 20.8069 0.296441 20.7361 0.298762C20.6652 0.301082 20.5971 0.32658 20.5421 0.371346C20.4871 0.416108 20.4483 0.47767 20.4317 0.546592C18.6496 5.60053 17.1451 11.3087 18.0232 16.6726C18.4479 18.8736 19.2835 20.975 20.4863 22.8666C21.7741 25.0683 23.2842 27.1322 24.9929 29.0259C26.3252 30.4935 27.9801 32.1819 29.9467 32.7332C31.7178 33.2366 33.3933 32.4021 34.6235 31.1393C36.0016 29.6232 37.0331 27.8252 37.6462 25.8702C38.3781 23.9276 38.6247 21.8357 38.3644 19.7762C37.8499 17.0159 36.6382 14.4329 34.8444 12.2726C33.137 10.0703 31.0274 8.21185 28.6274 6.79568C28.5645 6.76402 28.4932 6.75289 28.4236 6.76385C28.354 6.77481 28.2896 6.80731 28.2394 6.85677C26.7189 8.28578 26.7027 10.9219 26.7247 12.8401C26.8091 15.7656 27.1381 18.6789 27.7084 21.5495C28.14 24.0021 28.6113 26.4764 29.1816 28.8644C30.0282 32.5877 31.4847 36.1454 33.4919 39.3936C35.7297 43.1017 38.8865 46.1697 42.657 48.3007L42.8042 47.6941C38.9165 48.2641 35.3282 49.7589 31.7575 51.3297C29.9333 52.1846 28.0657 52.9435 26.1622 53.6032C24.2542 54.2144 22.306 54.6559 20.3552 55.0886C18.1561 55.5701 15.955 56.0284 13.7991 56.6739L14.1793 57.1405C15.1294 54.7825 16.6007 52.6701 18.483 50.9614C20.1414 49.5558 22.1096 48.5638 24.2259 48.0668C28.707 46.9791 33.4803 47.7211 37.9077 48.717C40.5369 49.3131 43.1008 50.0285 45.6648 50.7439L45.4589 50.2693C44.7767 51.9055 43.7623 53.3823 42.4798 54.6062C41.1973 55.83 39.6748 56.7744 38.0084 57.3794C34.7045 58.6381 31.1166 58.9436 27.6133 59.0811C25.6671 59.1543 23.7174 59.1664 21.7749 59.2194L22.0158 59.7649C24.1927 57.136 28.0198 56.1635 31.1589 55.2062C32.8729 54.6661 34.5873 54.1928 36.2553 53.5611C37.8949 52.8756 39.4977 52.1051 41.0571 51.2525C44.4625 49.5247 47.9478 47.9884 51.7595 47.4359C55.5711 46.8834 59.5998 47.3658 63.4486 48.0822C67.868 48.9039 72.2284 50.0627 76.6884 50.648C76.9713 50.6846 77.2661 50.3213 76.9995 50.0794C71.571 45.7947 64.8587 43.4381 59.6442 38.8567C55.0994 34.8339 52.5299 29.3205 50.4567 23.7239C49.3522 20.7186 48.3596 17.671 47.176 14.6889L46.7896 15.0981C55.8745 18.0065 60.9714 27.5031 63.5765 36.0577C64.2871 38.4502 64.829 40.8895 65.1982 43.3578L65.4334 43.0358C63.177 43.6373 60.7995 43.6136 58.5555 42.9674C56.484 42.3094 54.5928 41.1812 53.0295 39.6712C49.7412 36.5795 47.5705 32.3629 46.2079 28.1008C45.458 25.7787 44.9763 23.3785 44.7723 20.9468L44.4584 21.2775C47.6858 21.3068 50.2283 23.466 52.2399 25.7854C54.4653 28.3622 56.2309 31.2933 58.2772 34.0085C59.1685 35.2391 60.1775 36.3799 61.2899 37.4149C62.9209 38.7532 64.6494 39.9679 66.4611 41.049C70.5228 43.6994 74.7266 46.1172 79.0237 48.3644C83.876 50.8931 88.8439 53.197 93.8565 55.3923C93.9262 55.4441 94.0135 55.4661 94.0994 55.4535C94.1853 55.4409 94.2626 55.3947 94.3144 55.3251C94.3662 55.2555 94.3882 55.1681 94.3756 55.0822C94.363 54.9964 94.3168 54.919 94.2472 54.8672C90.6255 51.0612 86.1673 48.2308 82.2969 44.7173C80.3336 42.972 78.6419 40.9434 77.2776 38.6986C75.9715 36.3153 75.0064 33.7605 74.4106 31.1089C73.68 28.2712 73.011 25.4154 71.7163 22.7714L71.2848 23.2225C74.143 24.5475 76.8083 26.254 79.2078 28.2954C81.8892 30.4952 84.3351 32.9671 86.5063 35.6717C88.5703 38.1331 90.2239 40.9112 91.4034 43.8991C92.4522 46.7631 93.2726 49.7608 94.8777 52.4046C96.6923 55.4216 99.5252 57.4146 102.683 58.8539L102.672 58.2937C99.4768 59.8262 95.7714 60.2521 92.2808 60.5148C88.4876 60.804 84.671 60.7849 80.871 60.7084C77.2159 60.6372 73.5246 60.4429 69.8654 60.7168C65.983 60.945 62.2083 62.0814 58.845 64.0343C54.7787 66.4571 51.022 69.4482 46.2164 70.2106C45.8139 70.2711 45.8085 70.8888 46.2332 70.8552C54.3375 70.2349 62.0611 67.4338 69.6614 64.7499C71.8479 63.9808 74.0288 63.2085 76.2307 62.4921C76.2991 62.4704 76.3588 62.4275 76.4011 62.3696C76.4434 62.3117 76.4661 62.2418 76.466 62.1701C76.0517 56.5797 68.3846 55.8875 64.1318 55.8958C61.6784 55.8432 59.2295 56.1295 56.8545 56.7468C53.556 57.6982 50.4888 59.5371 47.646 61.4249C44.2819 63.6545 41.1231 66.1792 38.207 68.9692C38.1478 69.0308 38.1148 69.113 38.1149 69.1985C38.115 69.2839 38.1482 69.366 38.2075 69.4275C44.4336 75.0498 53.7769 75.6762 61.6767 74.3088C65.6747 73.6416 69.5368 72.3253 73.1101 70.4118C76.5161 68.4768 80.1591 66.9927 83.9477 65.9968C88.2973 65.0656 92.7783 64.9197 97.1792 65.5659L97.0221 65.0293C93.9713 68.7021 90.2787 71.7652 86.9586 75.1872C85.2701 76.9233 83.7728 78.8231 82.1546 80.6198C80.5364 82.4165 78.7598 84.2595 76.9927 86.0043C74.9821 87.978 72.9241 89.9035 70.8577 91.817L71.3828 92.2077C73.0153 88.4536 74.3334 84.5718 76.1029 80.8778C77.776 77.3602 79.9152 73.3956 83.3939 71.3311C84.9592 70.3884 86.8021 70.0158 88.6106 70.2764C89.6869 70.4684 90.735 70.7936 91.7309 71.2445C92.5623 71.5884 93.4906 71.7416 94.2909 72.1425C95.0912 72.5433 95.1172 73.3333 95.1063 74.177C95.0522 75.5976 94.6473 76.9828 93.9277 78.209C92.7732 80.3116 91.2029 82.1574 89.3125 83.634C87.2325 85.1753 85.0333 86.5491 82.7357 87.7422C81.6171 88.3519 80.4587 88.8857 79.2684 89.3401C78.4918 89.7 77.6399 89.8675 76.7848 89.8285C76.3782 89.7613 76.2275 90.388 76.6272 90.4811C77.3743 90.5589 78.1294 90.4668 78.8359 90.2117C79.9053 89.8563 80.9463 89.4206 81.9501 88.9082C84.2153 87.7742 86.3934 86.474 88.4666 85.0183C90.3065 83.7468 91.9174 82.1722 93.2303 80.3616C94.1489 79.1714 94.8619 77.8359 95.34 76.4105C95.7241 75.2526 95.79 74.0127 95.5306 72.8206C95.4219 72.4789 95.2274 72.1708 94.9658 71.9255C94.7043 71.6803 94.3842 71.5061 94.0363 71.4195C93.0171 71.0541 92.0062 70.7006 90.9995 70.3124C89.1611 69.5162 87.1148 69.3348 85.165 69.7953C81.1845 70.913 78.5691 74.7353 76.699 78.1674C74.5371 82.1195 73.0483 86.3808 71.3455 90.5471C71.167 90.9815 70.9886 91.4158 70.7956 91.8496C70.7592 91.9197 70.7491 92.0006 70.7672 92.0776C70.7853 92.1546 70.8304 92.2225 70.8942 92.269C70.9581 92.3156 71.0366 92.3377 71.1154 92.3314C71.1942 92.3251 71.2682 92.2907 71.3238 92.2346C74.9992 88.8517 78.6415 85.4213 82.0121 81.7313C83.6561 79.9414 85.154 78.0271 86.8327 76.2413C88.5114 74.4556 90.221 72.8566 91.9528 71.2033C93.9042 69.3933 95.7495 67.4721 97.4794 65.4494C97.6162 65.2804 97.585 64.9457 97.3166 64.9096C93.4834 64.3625 89.5909 64.376 85.7616 64.95C82.1375 65.6252 78.6306 66.8226 75.3502 68.5046C73.5278 69.3917 71.7806 70.4381 69.9153 71.2279C68.0774 71.9999 66.1803 72.6224 64.2424 73.0895C60.0726 74.136 55.7559 74.47 51.4747 74.0771C46.8274 73.6183 42.1605 72.1145 38.655 68.9335L38.6612 69.395C41.1037 67.0611 43.7196 64.9158 46.4864 62.9775C49.288 60.8982 52.336 59.1732 55.5609 57.8419C57.7511 57.0563 60.0524 56.6243 62.3784 56.5621C65.1181 56.3588 67.8727 56.5937 70.5385 57.2579C72.985 57.9313 75.5926 59.3503 75.8049 62.1631L76.0344 61.838C68.3956 64.3087 60.8966 67.4691 52.9871 69.1785C50.7491 69.6693 48.4805 70.0081 46.1968 70.1925L46.2136 70.837C50.3595 70.1866 53.765 67.986 57.2258 65.7788C59.0149 64.5627 60.9328 63.5478 62.9446 62.7528C64.8043 62.0936 66.7371 61.6624 68.7006 61.4686C72.4458 61.0644 76.2131 61.2413 79.995 61.3374C83.7768 61.4335 87.5815 61.4609 91.3612 61.2234C95.263 60.9788 99.4092 60.5575 102.996 58.8626C103.044 58.8324 103.084 58.7904 103.111 58.7404C103.139 58.6904 103.153 58.6342 103.152 58.5773C103.151 58.5204 103.135 58.4646 103.107 58.4155C103.078 58.3663 103.037 58.3254 102.988 58.2966C100.073 56.9678 97.3946 55.1778 95.6453 52.4329C93.9889 49.8423 93.1375 46.8203 92.1152 43.9485C91.0136 41.0441 89.4603 38.3318 87.5127 35.9119C85.3912 33.1707 82.9893 30.6584 80.3463 28.4158C77.7236 26.0963 74.7812 24.1658 71.6093 22.6834C71.5469 22.65 71.4753 22.6381 71.4055 22.6492C71.3356 22.6604 71.2714 22.6941 71.2225 22.7452C71.1736 22.7963 71.1428 22.8621 71.1347 22.9323C71.1266 23.0026 71.1418 23.0736 71.1778 23.1344C73.5428 27.9818 73.7688 33.5653 76.3278 38.3415C78.8248 42.9879 82.9499 46.2787 87.0265 49.4692C89.4316 51.2511 91.7026 53.2071 93.8214 55.3214L94.2064 54.7932C85.1859 50.8487 76.3313 46.4926 68.0102 41.202C65.99 40.0062 64.0414 38.6935 62.1742 37.2707C61.0068 36.2748 59.961 35.1448 59.0584 33.9039C56.9718 31.1814 55.1922 28.2353 52.9804 25.6068C50.7685 22.9783 48.0109 20.6719 44.4742 20.6139C44.4317 20.6143 44.3897 20.6233 44.3507 20.6403C44.3118 20.6573 44.2766 20.682 44.2473 20.7128C44.218 20.7436 44.1953 20.7801 44.1803 20.8199C44.1654 20.8597 44.1586 20.9021 44.1603 20.9446C44.5406 25.5608 45.8817 30.0466 48.0976 34.1141C50.2546 38.072 53.4331 41.7833 57.7723 43.3591C60.3097 44.2365 63.0512 44.3367 65.6458 43.647C65.7142 43.6253 65.7739 43.5824 65.8162 43.5245C65.8585 43.4666 65.8812 43.3967 65.8811 43.325C65.1682 38.7075 63.8511 34.2039 61.9637 29.9299C60.0193 25.5564 57.3583 21.3449 53.6794 18.2242C51.69 16.5224 49.385 15.2289 46.896 14.4175C46.8404 14.404 46.7823 14.4055 46.7275 14.4217C46.6728 14.438 46.6232 14.4684 46.584 14.5099C46.5448 14.5515 46.5172 14.6027 46.5042 14.6583C46.4911 14.7139 46.4929 14.772 46.5096 14.8267C48.656 20.2491 50.201 25.9335 52.9188 31.1217C54.2352 33.6997 55.928 36.0674 57.9416 38.147C60.4677 40.537 63.2987 42.5825 66.361 44.2303C69.8039 46.2023 73.3628 48.0161 76.4791 50.504L76.7902 49.9353C72.7171 49.3991 68.7656 48.3975 64.7171 47.5866C60.9045 46.8309 56.9712 46.2012 53.0802 46.5478C49.2694 46.9693 45.5699 48.0946 42.1699 49.8665C40.4566 50.7024 38.7908 51.6678 37.0652 52.4452C35.3857 53.1431 33.6646 53.7364 31.9117 54.2216C29.8816 54.7937 27.8855 55.4802 25.9329 56.2779C24.2376 56.9077 22.7137 57.9264 21.4836 59.2521C21.4402 59.2985 21.4113 59.3567 21.4007 59.4193C21.39 59.482 21.3981 59.5464 21.4237 59.6045C21.4494 59.6627 21.4916 59.712 21.5451 59.7463C21.5986 59.7807 21.661 59.7985 21.7245 59.7977C25.3861 59.695 29.0563 59.7522 32.6863 59.2481C36.1383 58.7723 39.6323 57.7874 42.3529 55.5151C43.9398 54.1652 45.1765 52.4513 45.9573 50.5198C45.9796 50.4759 45.9918 50.4276 45.993 50.3785C45.9943 50.3293 45.9845 50.2805 45.9645 50.2355C45.9445 50.1906 45.9147 50.1507 45.8773 50.1188C45.8399 50.0868 45.7959 50.0636 45.7484 50.0508C41.0446 48.7633 36.3145 47.4022 31.4394 46.9814C27.0009 46.6 22.2732 47.139 18.6461 49.9202C16.3881 51.7364 14.6355 54.1031 13.5569 56.7926C13.5289 56.8488 13.5175 56.9118 13.524 56.9742C13.5306 57.0366 13.5547 57.0959 13.5936 57.1451C13.6326 57.1943 13.6847 57.2314 13.744 57.252C13.8032 57.2727 13.8672 57.276 13.9282 57.2617C17.6713 56.1323 21.5584 55.5768 25.3086 54.4883C29.0588 53.3998 32.5223 51.5117 36.1746 50.0889C38.305 49.2451 40.522 48.6392 42.7853 48.2822C42.854 48.2753 42.9188 48.2471 42.9707 48.2015C43.0225 48.1559 43.0588 48.0952 43.0744 48.028C43.09 47.9607 43.0841 47.8903 43.0577 47.8265C43.0312 47.7628 42.9854 47.7089 42.9268 47.6725C36.2963 44.0454 32.07 37.1307 30.1202 29.9984C29.4687 27.6103 29.0263 25.137 28.5621 22.7036C27.9846 19.9114 27.5938 17.0839 27.3924 14.2397C27.2729 12.8337 27.3037 11.4191 27.4844 10.0197C27.5631 8.99288 27.9714 8.01899 28.6486 7.24317L28.2637 7.29857C32.2855 9.61681 35.8945 13.608 37.2641 18.0735C38.475 21.9645 37.3036 26.4289 34.9129 29.6649C33.933 30.9833 32.4861 32.3048 30.7306 32.1646C28.839 32.0164 27.1774 30.3539 25.9369 29.0694C24.2528 27.2988 22.7602 25.3555 21.4837 23.2718C20.3336 21.5651 19.4492 19.6937 18.8605 17.7216C18.2448 14.8531 18.222 11.889 18.7935 9.01126C19.2822 6.1539 20.0247 3.34579 21.012 0.620235L20.3876 0.640689C23.5972 8.92759 24.7773 17.8183 27.6267 26.1963C28.7608 29.7123 30.7518 32.891 33.4202 35.446C36.114 37.8698 39.1978 39.8215 42.5415 41.2187C49.5626 44.3207 57.0997 46.0203 64.205 48.8875C73.1737 52.5081 82.549 54.8587 91.8152 57.5708C96.3524 58.8928 100.82 60.4501 105.424 61.528C107.287 61.971 109.159 62.2635 111.045 62.5565C112.245 62.7401 113.885 62.9573 114.644 64.0817C114.824 64.4193 114.934 64.7898 114.966 65.1709C114.999 65.552 114.954 65.9358 114.835 66.2991L115.143 66.0465C112.22 66.4201 109.223 65.7119 106.422 64.9036C103.467 64.0258 100.574 62.9385 97.659 61.9201C94.0043 60.6596 90.2971 59.5626 86.6133 58.3823C82.4966 57.0613 78.3925 55.7176 74.3117 54.2906C70.2309 52.8636 66.2117 51.3373 62.1273 49.9305C58.0428 48.5237 54.0535 47.1319 50.0255 45.6895C41.986 42.8284 34.0841 39.5402 26.1328 36.4097C18.4303 33.3783 10.6762 30.1709 3.84947 25.4169C2.97287 24.8044 2.12062 24.1609 1.28081 23.4946C0.956778 23.2361 0.501503 23.7037 0.821891 23.9824L0.864275 24.013Z" stroke="#E9CDB4" stroke-width="0.6" mask="url(#path-1-outside-1_431_2925)"/>
</svg>
