<svg width="443" height="449" viewBox="0 0 443 449" fill="none" xmlns="http://www.w3.org/2000/svg">
<path d="M287.907 393.278C294.455 401.334 295.708 413.684 305.462 419.018C305.736 419.157 306.052 419.187 306.346 419.101C306.641 419.016 306.892 418.822 307.049 418.559C307.962 416.146 308.046 413.497 307.289 411.031C306.432 407.11 305.178 403.287 303.547 399.62C299.679 390.279 294.943 381.287 290.264 372.327C288.186 368.328 286.085 364.336 284.089 360.289C282.093 356.242 280.383 351.677 278.686 347.325C272.481 331.591 265.469 316.163 258.208 300.88C250.947 285.597 243.148 269.961 235.793 254.439C228.439 238.917 221.782 223.628 214.715 208.264C207.649 192.901 200.146 177.954 191.799 163.349C183.924 149.624 175.803 135.971 169.918 121.258C164.294 106.002 160.887 90.0191 159.8 73.7966C158.413 58.1435 157.754 42.3281 154.451 26.9154C153.654 23.2474 152.702 19.6247 151.57 16.0538C151.383 15.4059 150.454 14.8758 149.846 15.3669C145.428 18.9232 144.356 24.7546 144.143 30.1196C144.098 36.6625 144.661 43.1955 145.825 49.6342C146.657 55.1806 146.799 60.6849 147.228 66.1785C147.527 69.9665 147.851 75.6842 151.483 77.8528C156.123 80.7462 162.472 76.0007 166.002 73.3071C170.555 70.1102 173.958 65.5329 175.708 60.2521C178.571 49.9061 172.117 39.4986 166.333 31.4881C162.365 26.1481 158.119 21.1063 154.004 15.9298C150.204 11.6165 147.061 6.76652 144.676 1.53622C144.424 0.664949 142.988 0.306024 142.529 1.31092C137.964 11.1329 132.84 20.778 129.652 31.17C126.627 40.9575 125.358 51.9558 130.105 61.4047C134.643 70.3815 143.511 76.1666 148.171 85.2293C153.982 96.4282 153.597 109.641 158.572 121.13C164.132 134.218 172.918 145.572 179.6 158.02C179.725 158.211 179.901 158.361 180.109 158.453C180.317 158.546 180.547 158.577 180.772 158.542C180.996 158.508 181.206 158.409 181.377 158.259C181.547 158.108 181.671 157.912 181.733 157.693C183.487 148.952 181.815 140.089 180.533 131.404C178.831 122.105 178.843 112.573 180.57 103.279C182.11 93.3889 184.607 83.6716 188.025 74.264C191.397 65.0056 195.514 56.0639 199.529 47.1033C203.932 37.8246 207.767 28.2871 211.014 18.5434C211.462 17.0816 209.272 16.6265 208.763 17.9606C202.067 37.1419 187.766 52.6421 183.489 72.8176C183.448 72.9897 183.446 73.169 183.484 73.3419C183.522 73.5148 183.599 73.6768 183.71 73.8153C183.82 73.9539 183.96 74.0654 184.12 74.1415C184.28 74.2176 184.455 74.2562 184.632 74.2543C189.103 74.4934 193.574 73.7946 197.759 72.2028C201.943 70.6109 205.749 68.1612 208.93 65.0111C215.023 58.7095 218.967 50.642 220.196 41.9631C221.137 34.9223 221.027 27.7808 219.869 20.7726C219.07 15.5072 217.579 7.26991 211.719 5.26282C205.858 3.25573 201.604 9.71874 199.006 13.789C195.384 19.9051 192.257 26.3013 189.655 32.9162C185.988 40.9951 182.942 49.3414 180.543 57.8828C177.961 68.0044 176.599 78.3984 176.485 88.8435C176.436 112.769 182.331 136.332 193.639 157.416C194.276 158.612 196.145 157.707 195.789 156.478C192.151 143.003 192.599 129.167 200.622 117.326C207.861 106.705 218.829 99.0959 228.987 91.528C235.321 86.8113 241.635 82.0276 247.513 76.7407C247.688 76.5541 247.797 76.315 247.822 76.0605C247.848 75.8059 247.789 75.5502 247.654 75.3327C247.519 75.1152 247.317 74.9483 247.077 74.8576C246.838 74.767 246.576 74.7577 246.331 74.8313C231.782 81.2014 219.416 91.0075 206.764 100.412C206.594 100.523 206.456 100.675 206.362 100.854C206.268 101.033 206.221 101.234 206.226 101.436C206.232 101.638 206.289 101.836 206.392 102.01C206.495 102.184 206.641 102.329 206.816 102.431C212.507 105.359 219.531 104.946 225.585 103.943C233.279 102.808 240.622 99.9695 247.079 95.6336C252.333 91.9561 256.987 86.5395 257.02 79.7982C257.051 73.469 253.201 66.6174 247.015 64.6563C240.829 62.6951 233.621 65.316 227.99 68.11C221.214 71.5779 214.947 75.9602 209.364 81.1341C202.303 87.1372 197.241 95.1518 194.856 104.107C192.47 113.063 192.873 122.533 196.012 131.254C199.423 143.027 205.342 153.928 210.099 165.166C216.014 179.249 221.14 193.649 225.454 208.301C226.476 211.831 227.492 215.339 228.508 218.846C228.871 220.097 230.905 219.847 230.833 218.512C229.809 205.575 231.248 192.561 235.075 180.16C238.998 168.121 244.339 156.591 250.986 145.814C254.244 140.342 257.703 134.981 261.256 129.69C264.935 124.564 268.304 119.221 271.343 113.691C276.805 102.955 277.649 90.9903 281.083 79.607C285.744 64.0179 293.087 49.4924 297.796 33.8168L295.51 33.5345C294.969 44.3703 290.055 54.6569 286.287 64.6357C282.778 73.8372 279.048 83.95 280.785 93.9563C280.857 94.2005 281.007 94.4142 281.213 94.5647C281.418 94.7152 281.667 94.794 281.922 94.7892C309.73 91.3094 308.475 53.461 303.388 33.3105C302.065 27.385 299.785 21.7151 296.636 16.524C296.54 16.3735 296.411 16.2467 296.259 16.153C296.107 16.0592 295.936 16.001 295.758 15.9826C295.581 15.9642 295.401 15.9861 295.233 16.0468C295.066 16.1074 294.913 16.2051 294.789 16.3327C286.643 26.7906 279.978 38.3206 274.979 50.5976C272.558 56.2694 270.95 62.2545 270.201 68.3757C269.893 73.9186 269.885 79.4742 270.18 85.0179C270.466 90.3907 269.786 95.7713 268.171 100.904C266.162 105.871 263.693 110.64 260.796 115.148C255.312 124.22 248.996 132.927 245.468 142.981C240.72 156.841 239.199 171.602 241.02 186.138C241.025 186.396 241.115 186.644 241.276 186.845C241.437 187.045 241.66 187.187 241.91 187.247C242.16 187.308 242.423 187.283 242.657 187.178C242.892 187.074 243.086 186.894 243.207 186.667C246.9 179.689 251.661 172.885 258.582 168.773C263.912 165.788 270.01 164.46 276.098 164.958C289.622 165.665 302.495 171.234 315.753 173.616C323.606 175.156 331.67 175.28 339.566 173.982C339.737 173.931 339.894 173.842 340.025 173.722C340.155 173.601 340.257 173.452 340.321 173.286C340.385 173.12 340.41 172.942 340.395 172.764C340.379 172.587 340.323 172.416 340.231 172.264C334.715 164.175 324.686 159.816 315.561 156.987C304.413 153.698 292.89 151.844 281.272 151.472C275.783 151.201 270.281 151.315 264.807 151.811L265.67 153.789C275.96 144.754 288.748 139.329 302.584 140.866C317.045 142.507 330.274 149.786 339.4 161.123C344.068 167.035 348.221 173.097 353.987 178.037L354.178 176.19C335.456 185.706 315 191.996 293.827 189.122C288.621 188.402 283.484 187.25 278.469 185.677C273.688 183.869 268.778 182.426 263.779 181.361C260.729 180.74 257.562 181.09 254.722 182.363C251.506 184.239 248.76 186.823 246.692 189.919C241.888 196.154 236.502 203.308 234.732 211.158C232.781 220.054 235.864 229.525 238.467 237.924C242.031 249.174 246.504 260.115 251.844 270.638C254.557 276.076 257.398 281.452 260.501 286.728C263.186 291.398 266.142 295.918 268.45 300.794C273.338 311.147 276.325 322.292 280.212 333.032C283.65 342.642 287.689 352.49 294.864 359.952C294.973 360.059 295.102 360.143 295.244 360.199C295.386 360.256 295.537 360.283 295.69 360.279C295.842 360.276 295.993 360.241 296.132 360.179C296.271 360.116 296.396 360.026 296.5 359.914C303.988 350.473 310.16 340.058 314.845 328.955C319.385 318.462 323.025 307.624 327.065 296.913C331.298 285.499 336.474 274.458 342.541 263.904C345.638 258.832 348.444 253.588 350.946 248.198C353.134 242.839 354.843 237.295 356.051 231.633C359.68 217.967 364.777 204.734 371.253 192.165L369.059 191.614C370.734 214.109 356.313 233.373 351.362 254.568C351.321 254.74 351.319 254.919 351.357 255.092C351.395 255.265 351.472 255.427 351.583 255.565C351.693 255.704 351.833 255.815 351.993 255.891C352.153 255.968 352.328 256.006 352.505 256.004C363.35 254.654 370.377 243.804 374.494 234.693C376.974 229.315 378.723 223.628 379.693 217.786C380.548 211.679 380.243 205.466 378.795 199.473C376.748 190.234 373.127 181.331 371.785 171.936C371.77 171.685 371.675 171.444 371.514 171.25C371.353 171.056 371.135 170.919 370.89 170.857C370.646 170.796 370.388 170.814 370.155 170.909C369.921 171.004 369.724 171.171 369.592 171.385C359.563 185.163 350.08 199.655 343.621 215.475C340.364 222.661 338.374 230.357 337.74 238.222C337.784 245.846 338.544 253.45 340.009 260.932C341.295 270.052 341.716 279.277 338.16 287.984C338.048 288.232 338.025 288.511 338.095 288.774C338.164 289.037 338.322 289.268 338.541 289.429C338.761 289.59 339.029 289.67 339.301 289.656C339.573 289.642 339.832 289.536 340.034 289.354C360.14 272.244 387.275 279.227 409.643 287.228C415.878 289.441 422.018 291.827 428.237 294.069C428.534 294.136 428.846 294.085 429.107 293.929C429.368 293.772 429.559 293.521 429.64 293.227C433.328 282.472 420.776 276.423 412.507 273.709C399.246 269.63 385.372 267.912 371.517 268.634C366.393 268.835 360.582 269.089 355.898 271.391L357.126 273.457C367.873 265.5 380.166 257.701 394.023 258.723C401.324 259.477 408.351 261.908 414.557 265.826C420.692 269.449 427.674 273.988 431.062 280.417C432.705 284.416 433.911 288.58 434.66 292.838C435.614 296.717 437.733 300.21 440.733 302.847L440.924 301C432.559 305.017 423.329 306.9 414.059 306.483C405.297 305.876 396.632 304.267 388.236 301.687C373.288 297.566 355.214 289.678 340.98 299.807C333.572 305.077 328.4 313.138 323.021 320.314L325.002 321.387C327.503 308.119 329.084 295.02 324.71 281.928C322.1 274.951 319.031 268.156 315.523 261.585C311.962 254.311 308.357 247.049 304.414 239.958C300.341 232.32 295.709 224.994 290.557 218.038C290.143 218.618 289.73 219.198 289.288 219.762C293.368 221.084 297.016 223.482 299.847 226.704C303.537 230.558 306.797 234.802 309.568 239.361C314.935 247.513 319.016 256.442 321.669 265.834C321.736 266.052 321.865 266.245 322.04 266.39C322.215 266.535 322.429 266.626 322.656 266.651C322.882 266.675 323.111 266.633 323.313 266.529C323.516 266.425 323.683 266.264 323.795 266.066C329.26 257.097 326.614 245.707 322.562 236.735C317.751 225.955 310.046 216.721 300.303 210.057C295.758 206.888 290.405 205.079 284.869 204.842C284.663 204.849 284.461 204.908 284.285 205.014C284.108 205.121 283.961 205.271 283.858 205.45C281.265 211.532 280.208 218.158 280.779 224.745C281.521 230.587 283.387 236.231 286.272 241.364C292.236 252.422 301.041 261.664 307.081 272.651C310.294 277.912 312.253 283.841 312.805 289.98C313.357 296.119 312.489 302.303 310.266 308.052C306.046 320.316 298.189 331.141 290.434 341.403C282.213 352.309 273.06 362.927 266.796 375.155L268.603 374.873C250.788 358.435 230.791 344.662 210.659 331.34C199.745 324.259 189.095 317.004 178.56 309.644C168.71 302.811 158.922 295.356 148.18 289.871C138.238 284.809 126.395 280.54 119.1 271.659L118.625 273.613C130.12 269.411 142.892 275.131 152.868 280.643C163.378 286.864 173.468 293.77 183.072 301.314C183.263 301.472 183.499 301.565 183.746 301.582C183.994 301.598 184.24 301.537 184.45 301.407C184.661 301.276 184.825 301.083 184.921 300.854C185.016 300.626 185.037 300.373 184.981 300.131C183.539 294.003 180.637 288.314 176.521 283.549C171.716 277.573 166.11 272.287 159.862 267.841C148.807 259.856 133.568 252.309 119.635 255.619C116.006 256.574 112.641 258.342 109.797 260.789C106.952 263.237 104.702 266.3 103.217 269.747C103.108 269.977 103.071 270.235 103.109 270.487C103.148 270.739 103.261 270.974 103.434 271.161C113.998 283.889 124.258 297.238 137.513 307.297C143.89 312.389 151.2 316.185 159.033 318.473C167.722 320.799 177.103 320.915 186.055 321.639C197.098 322.317 207.974 324.678 218.304 328.641C218.529 328.76 218.787 328.801 219.038 328.76C219.289 328.718 219.519 328.595 219.694 328.41C219.868 328.225 219.977 327.987 220.004 327.734C220.03 327.481 219.973 327.226 219.841 327.009C212.339 314.653 214.236 300.64 213.511 286.854C212.871 274.447 210.419 262.057 211.584 249.611C211.711 248.461 209.872 248.049 209.419 249.076C201.174 266.672 201.083 285.998 207.201 304.276C207.271 304.518 207.418 304.73 207.619 304.882C207.82 305.033 208.065 305.115 208.316 305.115C226.771 303.788 228.74 282.248 226.121 267.944C225.848 266.498 223.614 267.145 223.887 268.591C226.215 281.308 224.952 301.604 208.298 302.796L209.435 303.629C203.52 285.97 203.47 267.242 211.436 250.187L209.271 249.652C208.034 262.602 210.731 275.503 211.254 288.427C211.548 295.292 211.069 302.163 211.775 309.029C212.351 315.805 214.434 322.366 217.871 328.233L219.408 326.602C210.749 323.14 201.654 320.886 192.38 319.903C182.92 318.842 173.303 318.747 163.885 317.165C147.155 314.335 133.715 302.295 122.638 290.225C116.486 283.532 110.836 276.402 105.034 269.414L105.25 270.829C119.497 240.767 159.196 266.629 173.302 283.223C177.911 288.144 181.168 294.175 182.757 300.728L184.695 299.561C176.901 293.804 169.208 287.896 161.023 282.712C152.392 277.246 142.884 272.009 132.676 270.293C127.781 269.334 122.72 269.674 117.996 271.277C117.805 271.34 117.634 271.451 117.498 271.599C117.362 271.747 117.265 271.927 117.218 272.122C117.17 272.318 117.173 272.522 117.226 272.716C117.279 272.91 117.381 273.087 117.521 273.231C123.776 280.863 133.552 285.101 142.194 289.354C146.695 291.463 151.074 293.825 155.31 296.426C160.879 300.019 166.337 303.814 171.795 307.608C182.468 315.026 193.045 322.447 204.023 329.582C214.163 336.33 224.293 342.961 234.13 349.918C245.571 357.989 256.494 366.77 266.835 376.209C266.963 376.329 267.118 376.418 267.286 376.47C267.455 376.522 267.633 376.535 267.807 376.508C267.981 376.48 268.146 376.414 268.291 376.314C268.436 376.213 268.556 376.081 268.642 375.928C274.282 364.971 282.291 355.337 289.737 345.6C297.487 335.655 305.339 325.147 310.42 313.431C315.108 302.532 316.733 290.753 312.659 279.366C308.356 267.608 299.864 258.106 292.948 247.857C288.92 242.313 285.873 236.119 283.938 229.545C282.07 221.864 282.726 213.785 285.811 206.506L284.801 207.114C294.641 207.145 303.441 214.451 309.665 221.389C316.799 229.299 322.828 239.491 324.308 250.201C325.202 255.254 324.324 260.461 321.823 264.942L323.948 265.174C321.14 255.215 316.768 245.766 310.995 237.18C306.088 229.521 299.273 219.872 289.916 217.498C289.027 217.271 288.018 218.386 288.654 219.243C297.823 231.334 304.771 245.037 311.496 258.635C317.702 271.197 324.959 283.793 325.38 298.2C325.377 305.92 324.521 313.615 322.826 321.146C322.638 322.169 324.054 323.212 324.807 322.218C329.63 315.712 334.284 308.624 340.594 303.406C343.63 300.98 347.146 299.224 350.909 298.255C354.673 297.285 358.599 297.124 362.43 297.782C371.488 298.96 380.322 302.285 389.078 304.591C397.14 306.994 405.445 308.494 413.839 309.065C423.639 309.527 433.399 307.531 442.233 303.26C442.383 303.164 442.51 303.035 442.604 302.884C442.697 302.732 442.756 302.56 442.774 302.383C442.792 302.205 442.77 302.026 442.71 301.858C442.649 301.69 442.551 301.538 442.424 301.413C435.943 295.76 436.872 287.015 433.248 279.856C429.946 273.306 423.191 268.628 417.097 264.896C410.856 260.805 403.82 258.082 396.451 256.906C389.963 256.095 383.374 256.89 377.265 259.219C369.537 262.329 362.31 266.561 355.816 271.778C355.542 271.941 355.344 272.206 355.265 272.515C355.187 272.823 355.234 273.151 355.397 273.425C355.56 273.699 355.825 273.897 356.134 273.975C356.443 274.054 356.77 274.007 357.044 273.844C361.02 272.29 365.255 271.507 369.524 271.536C375.651 271.12 381.801 271.168 387.921 271.678C394.63 272.209 401.279 273.321 407.796 275.001C413.164 276.202 418.267 278.376 422.851 281.415C426.693 284.225 428.995 288.159 427.392 292.91L428.795 292.067C417.009 287.83 405.407 283.055 393.255 279.892C381.103 276.729 368.653 275.13 356.642 278.391C349.878 280.204 343.613 283.526 338.317 288.108L340.191 289.478C342.955 282.333 343.921 274.619 343.006 267.014C342.275 259.307 340.544 251.745 340.093 244.005C339.182 227.319 347.46 210.924 355.75 196.826C360.636 188.57 365.94 180.568 371.639 172.85L369.445 172.299C371.452 186.247 378.917 199.728 377.861 214.054C376.915 225.215 372.826 235.879 366.068 244.81C362.7 249.152 358.147 253.328 352.466 254.03L353.615 255.489C358.619 234.062 372.963 214.699 371.403 191.928C371.328 190.836 369.761 190.273 369.209 191.377C363.725 202.122 359.184 213.322 355.636 224.852C353.888 230.855 352.889 237.102 350.77 242.995C348.729 248.452 346.201 253.714 343.218 258.719C340.241 263.989 337.062 269.148 334.373 274.576C331.683 280.005 329.4 285.412 327.2 290.941C322.953 301.858 319.293 312.798 314.86 323.575C309.977 336.16 303.27 347.959 294.955 358.594L296.606 358.527C290.153 351.8 286.376 342.942 283.188 334.276C279.773 324.998 277.054 315.446 273.378 306.268C269.569 296.717 263.915 288.233 259.01 279.241C253.277 268.905 248.305 258.165 244.13 247.108C242.084 241.55 240.284 235.921 238.774 230.207C237.484 225.902 236.763 221.446 236.629 216.953C236.747 209.001 241.074 202.371 245.469 196.061C247.811 192.143 250.791 188.644 254.287 185.709C255.611 184.803 257.105 184.174 258.678 183.86C260.252 183.545 261.872 183.552 263.443 183.88C268.198 184.864 272.867 186.224 277.407 187.946C282.309 189.536 287.334 190.721 292.43 191.488C314.611 194.748 335.952 188.42 355.627 178.434C355.778 178.337 355.905 178.209 355.998 178.057C356.092 177.905 356.15 177.734 356.169 177.556C356.187 177.378 356.165 177.199 356.105 177.031C356.044 176.863 355.946 176.711 355.819 176.586C350.13 171.745 345.999 165.677 341.303 159.918C336.762 154.047 331.019 149.213 324.459 145.741C312.269 139.441 298.28 136.374 284.893 140.398C277.2 142.876 270.13 146.981 264.164 152.433C264.012 152.602 263.912 152.812 263.876 153.036C263.84 153.261 263.869 153.491 263.96 153.699C264.051 153.908 264.2 154.086 264.389 154.212C264.579 154.338 264.8 154.407 265.027 154.411C274.949 153.531 284.939 153.797 294.8 155.205C305.765 156.332 316.457 159.319 326.418 164.037C331.152 166.226 335.255 169.577 338.345 173.779L339.025 172.032C324.115 174.729 309.44 170.215 295.216 166.417C283.29 163.286 269.976 160.29 258.497 166.473C250.704 170.668 245.32 178.161 241.268 185.824L243.455 186.353C241.832 173.419 242.883 160.29 246.543 147.779C249.645 137.34 255.494 128.526 261.182 119.323C266.467 110.818 271.592 102.262 272.372 92.0833C272.796 86.6089 272.396 81.1311 272.445 75.6197C272.353 69.6176 273.23 63.6398 275.041 57.9168C279.957 43.5376 287.282 30.099 296.703 18.1755L294.855 17.9842C300.767 27.023 303.015 38.7943 303.949 49.3723C304.822 60.7429 304.181 74.0775 297.306 83.6971C295.55 86.1708 293.295 88.249 290.686 89.7972C288.077 91.3455 285.173 92.3296 282.16 92.6861L283.298 93.5189C281.522 83.3785 285.962 72.7934 289.525 63.5279C293.089 54.2623 297.639 44.2263 298.108 33.7262C298.17 32.3522 296.202 32.2444 295.83 33.4662C291.571 47.4372 285.279 60.7385 280.617 74.4873C278.477 81.1396 276.762 87.921 275.481 94.7906C274.478 100.177 272.874 105.434 270.699 110.463C267.941 116.065 264.713 121.422 261.052 126.48C257.455 131.784 253.938 137.113 250.629 142.576C243.939 153.211 238.437 164.55 234.224 176.387C229.521 189.989 227.675 204.414 228.799 218.762L231.117 218.405C227.502 204.923 223.35 191.597 218.36 178.634C213.852 166.67 208.324 155.195 203.322 143.447C199.426 134.26 196.045 124.512 196.218 114.413C196.451 104.755 200.016 95.4746 206.31 88.1454C210.569 83.381 215.41 79.1715 220.72 75.616C226.283 71.3926 232.68 68.4003 239.486 66.8375C245.655 65.7284 251.1 67.8073 253.608 73.7884C254.885 76.6316 255.22 79.8081 254.565 82.8552C253.911 85.9024 252.3 88.6608 249.968 90.7284C244.014 96.1156 236.689 99.7546 228.799 101.244C222.456 102.67 214.361 103.732 208.34 100.585C208.365 101.256 208.389 101.927 208.392 102.604C220.862 93.3248 233.066 83.5417 247.397 77.2587C247.018 76.6179 246.638 75.9771 246.237 75.3428C235.566 84.8998 223.438 92.6028 212.543 101.886C203.026 109.995 194.625 119.863 192.349 132.485C191.04 140.778 191.618 149.26 194.041 157.299L196.191 156.362C177.649 121.197 173.563 78.8415 188.972 41.759C191.319 36.2359 193.717 30.5529 196.259 25.1186C198.801 19.6843 201.823 12.7307 206.764 8.80508C212.138 4.53602 215.745 11.3853 217.007 15.911C218.494 21.9892 219.157 28.2399 218.977 34.4948C219.136 43.8631 216.163 53.0163 210.53 60.5036C207.502 64.3755 203.576 67.4509 199.091 69.4633C194.606 71.4757 189.699 72.3643 184.793 72.0524L185.936 73.4891C190.226 53.3582 204.536 37.8069 211.216 18.6544L208.964 18.0717C203.382 36.0827 194.073 52.6794 187.295 70.238C183.726 79.4968 181.01 89.0619 179.18 98.8143C177.22 108.054 176.701 117.54 177.642 126.938C178.886 136.918 181.576 147.205 179.556 157.283L181.689 156.955C175.699 145.977 168.307 135.842 162.643 124.649C159.987 119.089 158.049 113.214 156.875 107.165C155.837 101.298 154.432 95.5018 152.67 89.8101C150.924 84.9092 148.318 80.3588 144.975 76.3721C141.936 72.6517 138.387 69.3453 135.462 65.5191C128.807 56.8408 128.35 46.3186 130.887 36.0185C133.783 24.2825 139.612 13.5613 144.684 2.64799L142.558 2.41622C146.054 11.3074 153.21 18.7027 159.074 25.9877C164.937 33.2728 172.54 42.3789 173.996 52.4182C174.626 57.0273 173.456 61.702 170.731 65.4718C168.944 67.8649 166.802 69.9715 164.38 71.7189C161.941 73.8061 159.09 75.3578 156.013 76.2738C151.455 77.2555 150.331 72.3747 149.877 68.8013C149.216 63.7622 149.36 58.6594 148.773 53.6233C148.006 47.3801 146.83 41.2311 146.522 34.9032C146.284 29.2331 146.197 21.243 151.109 17.3016L149.39 16.637C159.013 46.7579 154.753 79.2784 163.565 109.61C168.168 124.227 174.452 138.261 182.291 151.429C190.37 165.773 198.572 179.96 205.764 194.754C212.957 209.549 219.636 224.831 226.494 239.892C233.58 255.492 241.11 270.866 248.579 286.283C256.048 301.699 263.424 317.046 270.147 332.727C274.674 343.257 278.328 354.112 283.516 364.329C288.015 373.172 292.763 381.87 297.045 390.8C299.099 395.048 301.103 399.456 302.742 403.945C304.143 407.218 305.018 410.691 305.336 414.236C305.442 415.285 305.273 416.344 304.846 417.308L306.477 416.836C297.212 411.771 295.696 399.182 289.431 391.432C288.49 390.276 286.877 391.978 287.817 393.135L287.907 393.278Z" fill="#E9CDB4"/>
<path d="M226.226 268.64C223.654 255.583 218.958 240.961 207.471 232.908C205.059 231.241 202.407 229.951 199.607 229.084C199.36 229.024 199.1 229.048 198.867 229.15C198.634 229.253 198.442 229.429 198.318 229.651C191.353 246.332 188.996 264.578 191.491 282.481C192.633 291.228 195.715 299.61 200.512 307.013C205.96 315.121 214.017 320.197 221.665 325.948C230.992 333.378 238.818 342.518 244.723 352.879L246.282 351.24C232.802 343.159 220.211 358.793 213.711 368.789C208.617 376.856 204.32 385.4 200.882 394.299C197.411 402.827 194.613 411.613 192.513 420.576C191.545 424.636 190.862 428.758 190.469 432.913C190.097 435.86 190.194 438.848 190.757 441.765C191.068 442.837 192.374 442.749 192.905 441.99C205.732 423.745 205.818 400.134 216.085 380.742C218.908 375.302 222.721 370.436 227.329 366.393L225.693 366.431C233.543 373.383 232.592 385.646 230.428 394.893C229.301 399.745 227.617 404.45 225.409 408.915C223.795 412.119 222.049 415.288 220.384 418.483C216.088 426.726 211.667 435.538 205.076 442.29C203.997 443.579 202.668 444.635 201.168 445.394C199.669 446.153 198.031 446.6 196.354 446.706C195.031 446.621 193.74 446.259 192.565 445.644C191.39 445.03 190.357 444.175 189.532 443.137C184.791 437.803 183.004 429.797 181.899 422.973C180.575 416.429 180.489 409.695 181.643 403.118C184.08 392.556 191.472 384.385 199.437 377.525C203.749 373.854 208.151 370.158 212.251 366.257C215.67 362.845 219.002 358.466 218.204 353.37C217.51 348.97 213.981 345.73 210.5 343.494C205.923 340.784 200.91 338.893 195.683 337.907C184.938 336.014 173.938 336.075 163.214 338.087C152.373 339.787 141.81 342.945 131.815 347.475C127.682 349.102 123.869 351.445 120.55 354.395C119.585 355.328 118.491 356.735 119.001 358.161C119.511 359.587 121.973 360.061 123.501 360.151C128.773 360.011 133.94 358.647 138.594 356.165C143.464 353.677 148.529 351.594 153.741 349.937C156.67 349.383 159.657 349.192 162.633 349.371C166.991 349.367 171.336 349.489 175.672 349.492C179.904 349.568 184.137 349.385 188.347 348.943C191.325 348.868 194.224 347.978 196.731 346.369C197.523 345.761 198.135 344.948 198.501 344.019C198.867 343.09 198.974 342.078 198.81 341.093C198.514 340.171 198.038 339.316 197.409 338.58C196.78 337.843 196.011 337.239 195.146 336.803C189.847 333.641 183.117 332.563 177.136 331.56C169.94 330.376 162.682 329.645 155.443 329.151C149.815 328.54 144.135 328.561 138.511 329.214C126.732 331.101 117.355 338.103 109.319 346.558C105.201 350.899 101.339 355.457 97.3206 359.89C97.1103 360.113 96.9963 360.409 97.0034 360.716C97.0105 361.022 97.1382 361.313 97.3587 361.526C101.678 366.782 107.266 370.85 113.595 373.347C119.924 375.844 126.785 376.686 133.53 375.794C140.271 375.003 146.871 373.286 153.143 370.693C160.525 367.755 167.315 363.44 174.907 361.143C185.263 358.022 196.196 357.397 206.403 353.762C207.833 353.347 207.186 351.113 205.756 351.528C197.001 354.742 187.567 355.611 178.508 357.775C173.952 358.824 169.531 360.389 165.33 362.44C162.221 363.995 159.153 365.61 155.948 366.999C144.305 372.116 130.929 375.846 118.255 372.471C110.683 370.307 103.936 365.917 98.8893 359.871L98.9273 361.507C106.717 352.954 113.991 343.292 123.946 337.114C131.249 332.716 139.699 330.597 148.214 331.028C154.301 331.226 160.399 331.711 166.474 332.372C173.513 332.989 180.486 334.209 187.315 336.021C189.845 336.649 192.267 337.654 194.499 339C195.168 339.43 195.759 339.972 196.246 340.601C196.573 341.045 196.731 341.592 196.693 342.142C196.461 343.035 195.977 343.842 195.3 344.467C194.622 345.093 193.78 345.51 192.872 345.671C189.339 346.563 185.708 347.005 182.065 346.986C173.935 347.258 165.789 346.64 157.676 347.053C154.066 347.32 150.532 348.229 147.242 349.737C142.195 351.877 137.301 354.458 132.179 356.256C129.809 357.164 127.303 357.668 124.766 357.75C123.693 357.9 122.599 357.775 121.586 357.388C121.256 357.169 121.298 357.229 121.619 356.749C122.807 355.298 124.268 354.093 125.919 353.203C127.82 352.017 129.79 350.945 131.818 349.992C141.556 345.437 151.872 342.236 162.479 340.48C173.102 338.375 184.018 338.198 194.704 339.958C199.918 340.852 204.928 342.683 209.491 345.36C212.917 347.491 216.466 350.798 216.239 355.198C215.962 360.678 210.661 364.781 206.907 368.121C203.153 371.46 198.661 375.014 194.732 378.67C190.976 382.036 187.686 385.888 184.95 390.125C182.331 394.121 180.475 398.567 179.474 403.238C178.5 409.85 178.641 416.578 179.89 423.144C180.96 430.098 182.813 437.746 187.195 443.427C188.85 445.765 191.198 447.524 193.907 448.456C195.361 448.845 196.879 448.94 198.37 448.737C199.862 448.533 201.298 448.035 202.596 447.271C205.882 445.148 208.714 442.393 210.927 439.166C213.779 435.277 216.368 431.202 218.677 426.968C220.785 423.21 222.748 419.372 224.734 415.528C226.441 412.224 228.269 409.006 229.665 405.551C233.347 396.445 235.835 385.892 233.847 376.104C233.067 371.695 230.861 367.663 227.568 364.629C227.345 364.419 227.049 364.305 226.743 364.312C226.436 364.319 226.145 364.446 225.932 364.667C208.48 379.652 206.612 404.045 199.326 424.366C197.359 430.172 194.604 435.68 191.137 440.735L193.269 440.989C192.048 435.604 193.334 429.177 194.413 423.707C196.181 415.203 198.62 406.853 201.707 398.734C204.917 390.088 208.864 381.734 213.506 373.764C217.215 366.877 222.169 360.737 228.116 355.656C233.233 351.752 239.446 349.71 245.334 353.234C245.561 353.345 245.817 353.38 246.065 353.336C246.313 353.291 246.54 353.169 246.714 352.986C246.888 352.804 246.999 352.57 247.031 352.32C247.064 352.07 247.015 351.817 246.894 351.596C241.704 342.61 235.107 334.514 227.355 327.617C220.259 321.512 211.919 316.882 205.624 309.867C193.7 296.54 191.69 276.564 193.445 259.468C194.374 249.624 196.732 239.967 200.444 230.803L199.155 231.37C210.344 234.884 216.871 245.295 220.537 255.856C222.027 260.221 223.208 264.686 224.068 269.217C224.349 270.686 226.583 270.038 226.303 268.57L226.226 268.64Z" fill="#E9CDB4"/>
<path d="M289.457 391.521C278.114 370.592 266.346 349.447 257.283 327.276C252.125 314.653 248.699 301.407 244.644 288.416C240.091 273.97 234.339 259.931 227.448 246.444C221.709 234.209 213.697 223.176 203.839 213.934C194.861 206.218 184.849 199.795 174.094 194.849C152.317 184.377 128.898 178.182 106.282 169.745C92.4613 164.547 78.9792 158.489 65.915 151.607C60.2107 148.634 54.5258 145.729 48.841 142.823C42.8708 139.993 37.175 136.617 31.8261 132.739C29.5286 131.009 27.4231 129.037 25.5456 126.858L25.048 128.818C32.6955 126.797 41.1869 130.947 47.7303 134.476C55.9496 139.115 63.8606 144.281 71.4136 149.941C74.8125 152.395 78.1954 154.878 81.75 157.117C81.905 157.201 82.077 157.248 82.253 157.256C82.429 157.263 82.6044 157.231 82.766 157.16C82.9275 157.09 83.0711 156.984 83.1857 156.851C83.3004 156.717 83.3832 156.559 83.4279 156.389C86.3524 143.748 75.2497 133.259 65.8424 126.783C54.795 119.159 39.7647 112.665 26.1805 116.262C21.7125 117.556 17.3722 119.709 12.7373 119.091C8.83443 118.575 5.3669 116.553 1.41351 116.197C1.23558 116.2 1.06081 116.244 0.902644 116.326C0.744473 116.407 0.607125 116.524 0.501176 116.667C0.395228 116.81 0.323519 116.975 0.291545 117.15C0.259567 117.325 0.268176 117.505 0.316736 117.677C6.38155 134.347 21.2894 147.439 36.1145 156.317C43.6956 161.021 51.9754 164.49 60.6445 166.597C65.1399 167.712 69.806 167.962 74.3949 167.336C79.772 166.504 84.9443 164.715 90.3114 163.766C96.2079 162.874 102.235 163.522 107.807 165.647C113.171 167.812 118.696 169.556 124.331 170.86C125.201 171.02 126.28 169.981 125.593 169.114C118.042 159.74 111.389 149.677 105.722 139.057C99.2914 126.391 95.0946 112.908 89.5386 99.9155C86.8474 93.5517 82.4829 87.4304 81.7799 80.4905L80.0457 81.5257C83.3993 83.4429 86.2148 86.1753 88.2316 89.4699C90.7565 93.26 92.959 97.2552 94.8157 101.414C98.7897 109.948 102.114 118.914 105.651 127.696C108.18 134.403 111.258 140.89 114.854 147.09C114.964 147.26 115.116 147.398 115.296 147.492C115.475 147.586 115.675 147.633 115.878 147.628C116.08 147.623 116.278 147.566 116.452 147.462C116.626 147.359 116.771 147.213 116.873 147.038C119.558 142.16 120.687 136.577 120.107 131.039C119.609 124.561 118.295 118.173 116.197 112.025C112.354 100.013 107.254 87.7606 97.2749 79.561C91.2361 75.0061 84.8066 70.9939 78.0612 67.5714C77.8323 67.4557 77.5729 67.4144 77.3194 67.4531C77.0658 67.4919 76.8307 67.6087 76.6467 67.7874C74.6814 69.8899 73.5806 72.6558 73.5635 75.5337C73.3355 79.4204 73.5633 83.3204 74.2422 87.1542C75.4885 94.4774 77.2046 101.713 79.3798 108.816C82.5383 119.718 86.0086 131.111 92.6597 140.444C98.8932 149.172 108.275 154.808 117.6 159.662C128.397 165.251 140.003 170.122 148.572 178.972L148.763 177.125C136.393 183.324 124.191 190.854 115.375 201.714C111.554 206.88 108.083 212.294 104.984 217.922C101.453 223.788 97.9447 229.648 94.9834 235.809C91.7415 241.875 89.7169 248.516 89.0237 255.358C89.0271 255.536 89.0713 255.711 89.1528 255.869C89.2344 256.027 89.3511 256.165 89.4941 256.271C89.6371 256.377 89.8025 256.448 89.9775 256.48C90.1526 256.512 90.3326 256.504 90.5038 256.455C94.0091 255.563 97.1175 253.529 99.3387 250.675C102.208 247.281 104.702 243.587 106.777 239.657C111.22 231.589 114.908 223.087 118.973 214.887C121.823 208.737 125.59 203.057 130.147 198.04L128.3 197.849C131.228 202.623 132.432 208.256 131.714 213.811C130.819 219.238 128.776 224.412 125.722 228.986C119.176 239.406 109.818 247.978 100.55 255.942C96.0689 259.783 91.4561 263.42 87.0586 267.381L88.4508 267.172C81.5481 263.239 79.5483 254.665 79.1122 247.309C78.6196 239.837 79.5093 232.339 81.7365 225.19C84.6011 216.425 90.2509 208.836 97.8259 203.578C99.3393 202.435 100.998 201.499 102.758 200.793C104.5 200.265 106.28 199.87 108.083 199.614C111.499 199.036 115.465 198.516 118.175 196.084C123.678 191.173 118.592 184.485 114.2 181.109C108.716 176.541 102.091 173.554 95.0368 172.47C86.692 171.667 78.5704 175.061 71.4284 178.995C67.4397 181.192 63.631 183.676 59.8093 186.115C56.8324 188.043 53.7655 189.827 50.8304 191.816C44.3567 196.179 38.5444 201.452 33.572 207.471C29.2083 212.803 24.6333 219.746 25.9126 227.004C25.9668 227.174 26.0589 227.33 26.182 227.46C26.3051 227.59 26.4561 227.691 26.6235 227.754C26.791 227.817 26.9706 227.842 27.1488 227.826C27.3271 227.81 27.4995 227.754 27.653 227.662C32.2816 223.622 36.5163 219.152 40.3001 214.311C44.9183 209.307 50.154 204.91 55.8812 201.225C61.0278 197.676 66.1456 194.111 71.2022 190.418C76.05 186.588 81.3414 183.355 86.9622 180.791L85.5215 179.997C90.0534 190.792 83.561 201.899 75.9753 209.4C72.0711 213.292 67.5799 216.546 62.6659 219.044C60.0527 220.276 57.3354 221.274 54.5459 222.026C50.3012 223.255 46.0566 224.485 41.8767 225.938C32.7717 228.82 23.8953 232.379 15.3218 236.586L16.9111 236.973C9.92841 227.833 12.3007 214.457 16.4752 204.626C18.7415 199.131 21.9818 194.091 26.04 189.748C30.059 185.595 35.2236 182.733 40.8754 181.527C49.5943 179.741 58.4015 178.418 67.2601 177.563C68.7258 177.357 68.7077 175.037 67.2161 175.155C59.0222 176.293 50.7624 176.87 42.6474 178.616C36.3233 179.662 30.4226 182.471 25.6231 186.72C16.5828 195.571 11.1012 207.429 10.2159 220.049C9.54873 226.419 11.1877 232.818 14.8353 238.083C14.9999 238.339 15.2567 238.522 15.5525 238.594C15.8484 238.666 16.1606 238.622 16.4246 238.47C24.7061 234.393 33.2858 230.952 42.0894 228.177C46.5186 226.749 50.7439 225.452 55.0873 224.145C57.9387 223.356 60.7198 222.331 63.4018 221.082C73.4604 216.183 82.9807 207.419 87.255 196.93C88.4905 194.15 89.161 191.152 89.2276 188.111C89.2943 185.069 88.7557 182.045 87.6432 179.213C87.4879 178.677 86.831 178.165 86.2026 178.42C80.6598 180.911 75.4324 184.051 70.6302 187.774C65.5065 191.487 60.3475 195.161 55.1116 198.736C49.5469 202.282 44.4111 206.46 39.8062 211.186C35.3736 216.029 31.5855 221.51 26.3673 225.564L28.4558 226.17C27.3367 219.883 31.8242 213.474 35.5548 208.882C39.9984 203.497 45.1253 198.715 50.8058 194.656C53.2912 192.871 55.9277 191.356 58.5031 189.714C62.1431 187.4 65.7191 185.032 69.4361 182.817C76.5927 178.516 84.6478 174.39 93.2329 174.518C100.192 174.633 107.199 178.342 112.658 182.475C114.981 184.224 117.837 186.642 118.394 189.652C119.134 193.458 115.61 195.423 112.473 196.211C109.032 197.208 105.307 197.221 101.967 198.48C98.3546 200.048 95.0569 202.259 92.2338 205.005C86.1716 210.534 81.7338 217.614 79.3989 225.48C77.1704 233.152 76.4141 241.177 77.1701 249.13C77.9108 256.786 80.5167 265.112 87.5758 268.999C87.7998 269.118 88.0558 269.161 88.3063 269.123C88.5569 269.086 88.7887 268.969 88.968 268.79C97.8976 260.996 107.29 253.796 115.58 245.219C123.871 236.642 132.348 226.534 134.157 214.556C135.095 208.291 133.816 201.895 130.541 196.473C130.445 196.323 130.316 196.196 130.164 196.102C130.012 196.008 129.841 195.95 129.663 195.932C129.486 195.913 129.306 195.935 129.138 195.996C128.97 196.057 128.818 196.154 128.694 196.282C120.994 204.227 116.691 214.7 111.871 224.475C108.158 231.968 104.851 239.779 99.8281 246.513C97.3477 249.653 94.256 253.358 89.9524 254.217L91.4549 255.308C92.0687 249.254 93.8237 243.372 96.6272 237.972C99.4945 232.046 102.673 226.276 106.148 220.685C109.158 215.181 112.462 209.843 116.044 204.693C120.19 199.395 125.073 194.718 130.545 190.805C136.707 186.38 143.235 182.487 150.058 179.171C150.209 179.075 150.336 178.946 150.429 178.794C150.523 178.642 150.581 178.471 150.6 178.293C150.618 178.116 150.596 177.936 150.536 177.768C150.475 177.601 150.377 177.448 150.25 177.324C135.565 162.327 113.072 158.745 98.4099 143.742C90.559 135.701 86.6003 124.377 83.3313 113.846C81.2278 106.585 79.1113 99.2799 77.4993 91.8769C76.5312 87.5378 75.9799 83.1162 75.8531 78.6722C75.8194 75.6308 75.9067 71.5857 78.4132 69.4551L76.9987 69.6711C82.8417 72.685 88.4779 76.0838 93.8702 79.8452C99.0538 83.689 103.345 88.608 106.451 94.2651C109.112 99.3169 111.342 104.584 113.119 110.01C115.226 115.776 116.713 121.75 117.555 127.831C118.278 133.918 118.232 140.615 114.897 145.988L116.916 145.936C110.725 135.767 106.76 124.251 102.361 113.248C99.288 104.678 95.3301 96.4509 90.5514 88.7009C88.263 84.9135 85.0601 81.7615 81.2364 79.5341C81.059 79.4391 80.8599 79.3917 80.6587 79.3967C80.4575 79.4017 80.261 79.4588 80.0885 79.5625C79.916 79.6662 79.7733 79.8128 79.6745 79.9882C79.5756 80.1635 79.524 80.3615 79.5246 80.5628C80.1703 86.7201 83.3182 92.1526 85.9869 97.6028C89.145 104.074 91.4389 110.988 94.0356 117.694C98.4886 130.026 104.199 141.866 111.077 153.028C114.968 159.02 119.312 164.735 123.665 170.4L124.927 168.654C115.416 167.002 106.855 161.442 97.1126 160.996C86.4525 160.476 76.5936 166.65 65.8822 165.201C57.3588 163.845 49.1467 160.976 41.6336 156.728C33.3985 152.313 25.7939 146.811 19.0236 140.371C11.8458 133.942 6.22282 125.966 2.57959 117.045L1.48928 118.548C4.70968 119.198 7.8821 120.067 10.9845 121.148C14.3653 121.761 17.848 121.471 21.0805 120.306C24.6592 118.97 28.3948 118.099 32.1955 117.715C35.8735 117.573 39.5533 117.95 43.1261 118.835C55.5119 121.828 66.7147 128.469 75.286 137.898C79.6173 142.818 82.8483 149.122 81.3011 155.818L82.9725 155.068C75.6998 150.443 68.9132 145.072 61.7357 140.274C54.0296 135.072 45.7802 129.834 36.7641 127.216C32.8008 125.893 28.5519 125.676 24.4743 126.587C24.2791 126.645 24.1025 126.753 23.9622 126.901C23.8219 127.048 23.7227 127.23 23.6746 127.428C23.6265 127.625 23.6312 127.832 23.6881 128.028C23.745 128.223 23.8522 128.4 23.9991 128.541C32.0818 137.968 44.2957 143.099 55.1562 148.573C61.3432 151.624 67.4262 155.067 73.642 158.134C79.8578 161.2 86.4952 164.217 93.1636 167.007C116.282 176.679 140.647 182.963 163.747 192.737C174.857 197.235 185.41 203.002 195.194 209.924C205.57 217.602 214.234 227.355 220.636 238.562C228.271 251.732 234.604 265.614 239.546 280.013C244.3 293.915 247.734 308.273 252.839 322.05C261.087 344.336 272.785 365.404 284.064 386.279C285.235 388.483 286.422 390.657 287.615 392.854C288.313 394.177 290.305 392.946 289.674 391.604L289.457 391.521Z" fill="#E9CDB4"/>
</svg>
