<svg width="109" height="18" viewBox="0 0 109 18" fill="none" xmlns="http://www.w3.org/2000/svg">
<path d="M9.30442 15.096L4.79398 17.8325C4.59472 17.9602 4.38641 18.015 4.16904 17.9967C3.95167 17.9785 3.76147 17.9055 3.59844 17.7778C3.43541 17.6501 3.30861 17.4906 3.21804 17.2994C3.12747 17.1082 3.10935 16.8937 3.1637 16.6558L4.35924 11.4837L0.365048 8.00827C0.183906 7.84407 0.0708728 7.65689 0.0259495 7.44673C-0.0189738 7.23656 -0.00556933 7.0315 0.066163 6.83155C0.137895 6.6316 0.246581 6.4674 0.392219 6.33897C0.537858 6.21053 0.737114 6.12843 0.989989 6.09268L6.26123 5.62746L8.29908 0.756384C8.38965 0.537459 8.53022 0.373265 8.72078 0.263803C8.91134 0.15434 9.10589 0.0996094 9.30442 0.0996094C9.50295 0.0996094 9.6975 0.15434 9.88806 0.263803C10.0786 0.373265 10.2192 0.537459 10.3098 0.756384L12.3476 5.62746L17.6189 6.09268C17.8725 6.12916 18.0717 6.21126 18.2166 6.33897C18.3615 6.46667 18.4702 6.63087 18.5427 6.83155C18.6151 7.03223 18.6289 7.23765 18.584 7.44782C18.5391 7.65799 18.4257 7.8448 18.2438 8.00827L14.2496 11.4837L15.4451 16.6558C15.4995 16.893 15.4814 17.1075 15.3908 17.2994C15.3002 17.4914 15.1734 17.6508 15.0104 17.7778C14.8474 17.9048 14.6572 17.9777 14.4398 17.9967C14.2224 18.0157 14.0141 17.961 13.8149 17.8325L9.30442 15.096Z" fill="#E9CDB4"/>
<path d="M31.9001 15.096L27.3897 17.8325C27.1904 17.9602 26.9821 18.015 26.7647 17.9967C26.5474 17.9785 26.3572 17.9055 26.1941 17.7778C26.0311 17.6501 25.9043 17.4906 25.8137 17.2994C25.7232 17.1082 25.7051 16.8937 25.7594 16.6558L26.9549 11.4837L22.9608 8.00827C22.7796 7.84407 22.6666 7.65689 22.6217 7.44673C22.5767 7.23656 22.5901 7.0315 22.6619 6.83155C22.7336 6.6316 22.8423 6.4674 22.9879 6.33897C23.1336 6.21053 23.3328 6.12843 23.5857 6.09268L28.8569 5.62746L30.8948 0.756384C30.9854 0.537459 31.1259 0.373265 31.3165 0.263803C31.507 0.15434 31.7016 0.0996094 31.9001 0.0996094C32.0987 0.0996094 32.2932 0.15434 32.4838 0.263803C32.6743 0.373265 32.8149 0.537459 32.9055 0.756384L34.9433 5.62746L40.2146 6.09268C40.4682 6.12916 40.6674 6.21126 40.8123 6.33897C40.9572 6.46667 41.0659 6.63087 41.1384 6.83155C41.2108 7.03223 41.2246 7.23765 41.1797 7.44782C41.1348 7.65799 41.0214 7.8448 40.8395 8.00827L36.8453 11.4837L38.0408 16.6558C38.0952 16.893 38.0771 17.1075 37.9865 17.2994C37.8959 17.4914 37.7691 17.6508 37.6061 17.7778C37.4431 17.9048 37.2529 17.9777 37.0355 17.9967C36.8181 18.0157 36.6098 17.961 36.4106 17.8325L31.9001 15.096Z" fill="#E9CDB4"/>
<path d="M54.5007 15.096L49.9903 17.8325C49.791 17.9602 49.5827 18.015 49.3653 17.9967C49.148 17.9785 48.9578 17.9055 48.7947 17.7778C48.6317 17.6501 48.5049 17.4906 48.4143 17.2994C48.3238 17.1082 48.3056 16.8937 48.36 16.6558L49.5555 11.4837L45.5613 8.00827C45.3802 7.84407 45.2672 7.65689 45.2222 7.44673C45.1773 7.23656 45.1907 7.0315 45.2625 6.83155C45.3342 6.6316 45.4429 6.4674 45.5885 6.33897C45.7341 6.21053 45.9334 6.12843 46.1863 6.09268L51.4575 5.62746L53.4954 0.756384C53.5859 0.537459 53.7265 0.373265 53.9171 0.263803C54.1076 0.15434 54.3022 0.0996094 54.5007 0.0996094C54.6992 0.0996094 54.8938 0.15434 55.0844 0.263803C55.2749 0.373265 55.4155 0.537459 55.5061 0.756384L57.5439 5.62746L62.8151 6.09268C63.0687 6.12916 63.268 6.21126 63.4129 6.33897C63.5578 6.46667 63.6665 6.63087 63.739 6.83155C63.8114 7.03223 63.8252 7.23765 63.7803 7.44782C63.7353 7.65799 63.622 7.8448 63.4401 8.00827L59.4459 11.4837L60.6414 16.6558C60.6958 16.893 60.6777 17.1075 60.5871 17.2994C60.4965 17.4914 60.3697 17.6508 60.2067 17.7778C60.0437 17.9048 59.8535 17.9777 59.6361 17.9967C59.4187 18.0157 59.2104 17.961 59.0112 17.8325L54.5007 15.096Z" fill="#E9CDB4"/>
<path d="M77.0969 15.096L72.5865 17.8325C72.3872 17.9602 72.1789 18.015 71.9615 17.9967C71.7441 17.9785 71.5539 17.9055 71.3909 17.7778C71.2279 17.6501 71.1011 17.4906 71.0105 17.2994C70.9199 17.1082 70.9018 16.8937 70.9562 16.6558L72.1517 11.4837L68.1575 8.00827C67.9764 7.84407 67.8634 7.65689 67.8184 7.44673C67.7735 7.23656 67.7869 7.0315 67.8586 6.83155C67.9304 6.6316 68.0391 6.4674 68.1847 6.33897C68.3303 6.21053 68.5296 6.12843 68.7825 6.09268L74.0537 5.62746L76.0916 0.756384C76.1821 0.537459 76.3227 0.373265 76.5133 0.263803C76.7038 0.15434 76.8984 0.0996094 77.0969 0.0996094C77.2954 0.0996094 77.49 0.15434 77.6805 0.263803C77.8711 0.373265 78.0117 0.537459 78.1022 0.756384L80.1401 5.62746L85.4113 6.09268C85.6649 6.12916 85.8642 6.21126 86.0091 6.33897C86.154 6.46667 86.2627 6.63087 86.3352 6.83155C86.4076 7.03223 86.4214 7.23765 86.3765 7.44782C86.3315 7.65799 86.2181 7.8448 86.0363 8.00827L82.0421 11.4837L83.2376 16.6558C83.292 16.893 83.2739 17.1075 83.1833 17.2994C83.0927 17.4914 82.9659 17.6508 82.8029 17.7778C82.6399 17.9048 82.4497 17.9777 82.2323 17.9967C82.0149 18.0157 81.8066 17.961 81.6073 17.8325L77.0969 15.096Z" fill="#E9CDB4"/>
<path d="M99.695 15.096L95.1846 17.8325C94.9853 17.9602 94.777 18.015 94.5597 17.9967C94.3423 17.9785 94.1521 17.9055 93.9891 17.7778C93.826 17.6501 93.6992 17.4906 93.6087 17.2994C93.5181 17.1082 93.5 16.8937 93.5543 16.6558L94.7499 11.4837L90.7557 8.00827C90.5745 7.84407 90.4615 7.65689 90.4166 7.44673C90.3717 7.23656 90.3851 7.0315 90.4568 6.83155C90.5285 6.6316 90.6372 6.4674 90.7828 6.33897C90.9285 6.21053 91.1277 6.12843 91.3806 6.09268L96.6519 5.62746L98.6897 0.756384C98.7803 0.537459 98.9208 0.373265 99.1114 0.263803C99.302 0.15434 99.4965 0.0996094 99.695 0.0996094C99.8936 0.0996094 100.088 0.15434 100.279 0.263803C100.469 0.373265 100.61 0.537459 100.7 0.756384L102.738 5.62746L108.009 6.09268C108.263 6.12916 108.462 6.21126 108.607 6.33897C108.752 6.46667 108.861 6.63087 108.933 6.83155C109.006 7.03223 109.02 7.23765 108.975 7.44782C108.93 7.65799 108.816 7.8448 108.634 8.00827L104.64 11.4837L105.836 16.6558C105.89 16.893 105.872 17.1075 105.781 17.2994C105.691 17.4914 105.564 17.6508 105.401 17.7778C105.238 17.9048 105.048 17.9777 104.83 17.9967C104.613 18.0157 104.405 17.961 104.205 17.8325L99.695 15.096Z" fill="#E9CDB4"/>
</svg>
